<svg id="bee33251-efc1-49da-a33c-11cbf9579c0d" data-name="Layer 1" xmlns="http://www.w3.org/2000/svg" width="865.76" height="682.89" viewBox="0 0 865.76 682.89"><rect x="163.42" y="23.7" width="180.24" height="170.95" rx="6.79" transform="translate(23.75 -43.78) rotate(10.35)" fill="#e1e1e1"/><path d="M278.62,139.91a7.77,7.77,0,0,1-1.21-.14l-3.44-.55-12.74-2.17-42.71-7.55-.35-.07v-.35c.09-2.32.19-4.77.29-7.25.9-21.22,1.7-40.15,2.22-52.53l.21.27L209.56,67.4l-3-.61a5.75,5.75,0,0,1-1-.26,6.8,6.8,0,0,1,1.06.12l3,.48L221,69.06l.22,0v.23c-.45,12.38-1.15,31.32-1.92,52.54-.1,2.48-.2,4.94-.29,7.25l-.34-.42,42.66,7.82,12.7,2.42,3.42.69A6.29,6.29,0,0,1,278.62,139.91Z" fill="#fafafa"/><path d="M219.09,116.35a.92.92,0,0,1,.31,0l.89.12,3.45.56,12.87,2.2,44.32,7.84-.44.25c2.66-7.22,5.53-15,8.5-23.11l4.48-12.13.31.54L241.59,83.1l-15.44-2.91L222,79.37l-1.07-.23a1.1,1.1,0,0,1-.36-.1,1.73,1.73,0,0,1,.37,0l1.08.16,4.18.68,15.48,2.66,52.24,9.27.47.09-.16.45c-1.44,3.89-2.94,8-4.47,12.13-3,8.08-5.87,15.88-8.53,23.1l-.12.31-.32-.06-44.27-8.12-12.83-2.43-3.42-.68-.88-.2A1.1,1.1,0,0,1,219.09,116.35Z" fill="#fafafa"/><path d="M230.66,148.09c-.07,0,0-.55-.08-1.49a6.09,6.09,0,0,0-1.64-3.51,5.84,5.84,0,0,0-5.25-1.71,5.72,5.72,0,0,0-1.9,10.57,5.83,5.83,0,0,0,5.51.23,6.12,6.12,0,0,0,2.77-2.72c.42-.85.52-1.38.59-1.37a3.05,3.05,0,0,1-.3,1.5,6.08,6.08,0,0,1-2.79,3.1,6.36,6.36,0,0,1-6.16-.08,6.45,6.45,0,0,1,2.16-12,6.37,6.37,0,0,1,5.8,2.07,6.1,6.1,0,0,1,1.53,3.88A2.93,2.93,0,0,1,230.66,148.09Z" fill="#fafafa"/><path d="M269.3,155.05c-.08,0,0-.55-.09-1.49a6.06,6.06,0,0,0-1.64-3.51,5.86,5.86,0,0,0-5.24-1.72,5.75,5.75,0,1,0,3.6,10.81,6.12,6.12,0,0,0,2.77-2.72c.42-.85.52-1.39.6-1.37a3.33,3.33,0,0,1-.31,1.5,6.08,6.08,0,0,1-2.79,3.1,6.36,6.36,0,0,1-6.16-.08,6.46,6.46,0,0,1,2.16-12,6.37,6.37,0,0,1,5.8,2.07,6,6,0,0,1,1.53,3.88A3.15,3.15,0,0,1,269.3,155.05Z" fill="#fafafa"/><path d="M308.79,88.66a17.41,17.41,0,1,1-14.05-20.21A17.42,17.42,0,0,1,308.79,88.66Z" fill="#fafafa"/><path d="M290.56,95.09s.06.14.05.42l-.27-.06a69.59,69.59,0,0,1,1.36-8.68c1-5,2-9,2.28-8.92s-.31,4.14-1.3,9.11a70.48,70.48,0,0,1-2.07,8.55l-.27-.06C290.44,95.19,290.51,95.08,290.56,95.09Z" fill="#e1e1e1"/><path d="M301.2,88.45c-.05.27-4.11-.31-9.07-1.29s-8.93-2-8.88-2.27,4.12.3,9.08,1.29S301.26,88.18,301.2,88.45Z" fill="#e1e1e1"/><path d="M668.29,167.6s.42-.06,1.23-.12l3.61-.26c.8,0,1.69-.15,2.67-.13l3.22.12c1.16.06,2.43,0,3.76.19l4.25.6a68.39,68.39,0,0,1,43.26,25.48l2.5,3.27c.77,1.16,1.49,2.37,2.25,3.57a67.63,67.63,0,0,1,4.1,7.69,68.76,68.76,0,0,1,5.18,17.69,70.07,70.07,0,0,1,.9,9.7c.07,1.65-.11,3.32-.15,5l-.11,2.53c-.08.84-.24,1.68-.35,2.52a66.13,66.13,0,0,1-5.8,20.11,69.74,69.74,0,0,1-30.4,32.31,70.89,70.89,0,0,1-47,6.78c-1-.22-2.08-.47-3.11-.73l.44-.06L626.44,324l-1.13.71.29-1.3c2.5-11.16,4.92-22,7.25-32.36l.19.54a70.17,70.17,0,0,1-21.22-27.13,71,71,0,0,1-4.71-15.56,53.16,53.16,0,0,1-.89-7.77q-.11-1.94-.21-3.84c-.06-1.27.09-2.53.12-3.78A69.16,69.16,0,0,1,613,206.32a70.68,70.68,0,0,1,14-19.5,67.85,67.85,0,0,1,29.3-17l5.11-1.29,3.81-.56,2.32-.32c.52-.07.79-.08.79-.08a7,7,0,0,1-.78.17l-2.31.41-3.77.64-5.07,1.37A71.15,71.15,0,0,0,643,175.72a69.62,69.62,0,0,0-15.54,11.57,70.36,70.36,0,0,0-13.76,19.38A68.46,68.46,0,0,0,607,233.5c0,1.23-.17,2.48-.1,3.73s.14,2.51.22,3.78a51.7,51.7,0,0,0,.9,7.67,68.18,68.18,0,0,0,25.64,42l.27.21-.07.33c-2.32,10.39-4.72,21.21-7.21,32.37l-.84-.59,32.24-20.12.2-.13.24.06c1,.26,2,.5,3.06.71a69.77,69.77,0,0,0,46.3-6.65,68.72,68.72,0,0,0,30-31.77,65,65,0,0,0,5.76-19.8c.12-.83.27-1.65.35-2.48l.12-2.49c0-1.65.23-3.3.16-4.92a71.66,71.66,0,0,0-.85-9.58,65.91,65.91,0,0,0-9.07-25.08c-.75-1.19-1.45-2.39-2.21-3.54L729.66,194A68.33,68.33,0,0,0,687,168.43l-4.21-.64c-1.32-.16-2.58-.16-3.73-.24l-3.21-.18c-1,0-1.87.06-2.66.08l-3.61.14C668.71,167.62,668.29,167.6,668.29,167.6Z" fill="#e1e1e1"/><polygon points="655.11 205.42 646.84 268.11 708.14 268.11 699.21 205.42 655.11 205.42" fill="#e1e1e1"/><path d="M694.23,214.52a4.2,4.2,0,0,1-.33,1.82,17.24,17.24,0,0,1-2.19,4.53,16.44,16.44,0,0,1-5.47,5.14,17.88,17.88,0,0,1-8.91,2.24,18.15,18.15,0,0,1-9-2.06,14.67,14.67,0,0,1-5.43-5.2,16.45,16.45,0,0,1-2-4.64,4,4,0,0,1-.22-1.83,27.86,27.86,0,0,0,2.86,6,14.52,14.52,0,0,0,5.25,4.72,17.8,17.8,0,0,0,8.45,1.85,17.39,17.39,0,0,0,8.42-2,16.55,16.55,0,0,0,5.33-4.69C693.49,217.07,694.05,214.45,694.23,214.52Z" fill="#fff"/><path d="M539.58,666.53H336.75c-24.43-.11-44.43-20.94-44.33-45.37l2.15-509.23A44.26,44.26,0,0,1,339,67.87l203.12.94a44.24,44.24,0,0,1,44,44.43L584,622.47A44.24,44.24,0,0,1,539.58,666.53Z" fill="#002c3c"/><path d="M541.85,86.38l-39.38-.18a9.79,9.79,0,0,0-9.6,10l0,7.14a9.79,9.79,0,0,1-9.61,10l-76.76-.35a9.79,9.79,0,0,1-9.52-10l0-7.15a9.8,9.8,0,0,0-9.52-10l-13.85-.06-34.47-.16A31,31,0,0,0,308,116.3l-2.1,497.05a31,31,0,0,0,30.84,31.12l202.72.93a31,31,0,0,0,31.13-30.85l2.1-497A31,31,0,0,0,541.85,86.38Z" fill="#fafafa"/><path d="M365.67,137.16c0,.22-6.78.4-15.15.4s-15.15-.18-15.15-.4,6.78-.39,15.15-.39S365.67,136.94,365.67,137.16Z" fill="#d1d3d4"/><path d="M365.67,131.44c0,.22-6.78.4-15.15.4s-15.15-.18-15.15-.4,6.78-.4,15.15-.4S365.67,131.22,365.67,131.44Z" fill="#d1d3d4"/><path d="M365.67,125.72c0,.22-6.78.4-15.15.4s-15.15-.18-15.15-.4,6.78-.4,15.15-.4S365.67,125.5,365.67,125.72Z" fill="#d1d3d4"/><rect x="333.91" y="564.43" width="210.79" height="48.23" rx="3.22" fill="#d1d3d4"/><g opacity="0.3"><rect x="356.83" y="574.22" width="29.85" height="29.85" rx="3.12"/></g><path d="M371.75,597.8A.76.76,0,0,1,371,597V581.25a.76.76,0,0,1,.76-.76.77.77,0,0,1,.77.76V597A.77.77,0,0,1,371.75,597.8Z" fill="#fff"/><path d="M379.51,589.91H364a.77.77,0,1,1,0-1.53h15.51a.77.77,0,0,1,0,1.53Z" fill="#fff"/><path d="M412.85,592h-5.26l-1.09,2.48H405l4.49-9.91h1.4l4.5,9.91h-1.49Zm-.49-1.13L410.22,586l-2.14,4.86Z" fill="#fff"/><path d="M416.91,584.55h4.18c3.18,0,5.35,2,5.35,5s-2.17,5-5.35,5h-4.18Zm4.09,8.68c2.45,0,4-1.5,4-3.73s-1.57-3.72-4-3.72h-2.67v7.45Z" fill="#fff"/><path d="M428.62,584.55h4.17c3.19,0,5.35,2,5.35,5s-2.16,5-5.35,5h-4.17Zm4.09,8.68c2.45,0,4-1.5,4-3.73s-1.57-3.72-4-3.72H430v7.45Z" fill="#fff"/><path d="M446.1,585.78h-3.4v-1.23h8.2v1.23h-3.4v8.68h-1.4Z" fill="#fff"/><path d="M451.5,589.5a5.27,5.27,0,1,1,5.28,5.07A5,5,0,0,1,451.5,589.5Zm9.12,0a3.85,3.85,0,1,0-3.84,3.81A3.72,3.72,0,0,0,460.62,589.5Z" fill="#fff"/><path d="M467.21,589.5a5,5,0,0,1,5.26-5.07,4.88,4.88,0,0,1,3.76,1.55l-.92.89a3.66,3.66,0,0,0-2.79-1.18,3.81,3.81,0,1,0,0,7.62,3.67,3.67,0,0,0,2.79-1.19l.92.9a4.93,4.93,0,0,1-3.78,1.55A5,5,0,0,1,467.21,589.5Z" fill="#fff"/><path d="M484.34,592h-5.27L478,594.46h-1.46l4.49-9.91h1.4l4.51,9.91h-1.49Zm-.5-1.13L481.71,586l-2.14,4.86Z" fill="#fff"/><path d="M495,594.46l-2.14-3.05q-.3,0-.63,0h-2.45v3H488.4v-9.91h3.86c2.58,0,4.14,1.3,4.14,3.45a3.13,3.13,0,0,1-2.18,3.13l2.35,3.33Zm0-6.46c0-1.41-1-2.22-2.76-2.22h-2.41v4.46h2.41C494,590.24,495,589.42,495,588Z" fill="#fff"/><path d="M500.53,585.78h-3.4v-1.23h8.2v1.23h-3.4v8.68h-1.4Z" fill="#fff"/><polygon points="350.72 472.72 353.32 477.98 359.12 478.83 354.92 482.92 355.92 488.7 350.72 485.98 345.53 488.7 346.52 482.92 342.32 478.83 348.13 477.98 350.72 472.72" fill="#d1d3d4"/><polygon points="372.16 472.72 374.76 477.98 380.56 478.83 376.36 482.92 377.35 488.7 372.16 485.98 366.97 488.7 367.96 482.92 363.76 478.83 369.56 477.98 372.16 472.72" fill="#d1d3d4"/><polygon points="393.6 472.72 396.19 477.98 402 478.83 397.8 482.92 398.79 488.7 393.6 485.98 388.4 488.7 389.4 482.92 385.19 478.83 391 477.98 393.6 472.72" fill="#d1d3d4"/><polygon points="415.03 472.72 417.63 477.98 423.44 478.83 419.24 482.92 420.23 488.7 415.03 485.98 409.84 488.7 410.83 482.92 406.63 478.83 412.44 477.98 415.03 472.72" fill="#d1d3d4"/><polygon points="436.47 472.72 439.07 477.98 444.87 478.83 440.67 482.92 441.66 488.7 436.47 485.98 431.28 488.7 432.27 482.92 428.07 478.83 433.88 477.98 436.47 472.72" fill="#e6e7e8"/><path d="M467.92,484.92v1.18h-6.83v-.93l3.87-3.73c1-1,1.19-1.57,1.19-2.17,0-1-.69-1.58-2-1.58a3,3,0,0,0-2.43,1l-.93-.8a4.4,4.4,0,0,1,3.48-1.43c2,0,3.26,1,3.26,2.64,0,.93-.27,1.75-1.56,3l-2.91,2.8Z" fill="#d1d3d4"/><path d="M475.53,483.3c0,1.6-1.18,2.91-3.6,2.91a5.41,5.41,0,0,1-3.49-1.16l.63-1.07a4.27,4.27,0,0,0,2.86,1c1.43,0,2.24-.65,2.24-1.69s-.72-1.65-2.35-1.65h-.76v-1l2.39-2.93h-4.57v-1.19h6.27v.93l-2.48,3.07C474.57,480.76,475.53,481.83,475.53,483.3Z" fill="#d1d3d4"/><path d="M487.57,486.1l-2.05-2.92c-.19,0-.39,0-.6,0h-2.35v2.89h-1.35v-9.51h3.7c2.48,0,4,1.25,4,3.32a3,3,0,0,1-2.09,3l2.25,3.19Zm0-6.19c0-1.36-.91-2.13-2.65-2.13h-2.31v4.27h2.31C486.62,482.05,487.53,481.26,487.53,479.91Z" fill="#d1d3d4"/><path d="M497.37,482.93h-5.84a2.43,2.43,0,0,0,2.61,2.11,2.71,2.71,0,0,0,2.08-.87l.72.84a3.92,3.92,0,0,1-6.71-2.51,3.53,3.53,0,0,1,3.61-3.67,3.47,3.47,0,0,1,3.56,3.71C497.4,482.65,497.38,482.81,497.37,482.93Zm-5.84-.93h4.62a2.32,2.32,0,0,0-4.62,0Z" fill="#d1d3d4"/><path d="M505.43,478.9l-3.15,7.2H501l-3.15-7.2h1.36l2.47,5.77,2.53-5.77Z" fill="#d1d3d4"/><path d="M506.42,476.68a.86.86,0,0,1,.88-.86.85.85,0,1,1-.88.86Zm.23,2.22H508v7.2h-1.31Z" fill="#d1d3d4"/><path d="M516.92,482.93h-5.84a2.43,2.43,0,0,0,2.6,2.11,2.7,2.7,0,0,0,2.08-.87l.72.84a3.92,3.92,0,0,1-6.71-2.51,3.53,3.53,0,0,1,3.62-3.67,3.47,3.47,0,0,1,3.55,3.71C516.94,482.65,516.93,482.81,516.92,482.93Zm-5.84-.93h4.61a2.32,2.32,0,0,0-4.61,0Z" fill="#d1d3d4"/><path d="M529.5,478.9l-2.69,7.2h-1.25l-2.08-5.46-2.1,5.46h-1.25l-2.67-7.2h1.23l2.09,5.73L523,478.9h1.09l2.14,5.76,2.14-5.76Z" fill="#d1d3d4"/><path d="M529.81,485.34l.54-1a4.66,4.66,0,0,0,2.53.74c1.21,0,1.71-.37,1.71-1,0-1.61-4.55-.21-4.55-3.08,0-1.29,1.15-2.16,3-2.16a5.29,5.29,0,0,1,2.62.65l-.56,1A3.75,3.75,0,0,0,533,480c-1.14,0-1.7.42-1.7,1,0,1.7,4.56.31,4.56,3.11,0,1.3-1.19,2.13-3.11,2.13A5.24,5.24,0,0,1,529.81,485.34Z" fill="#d1d3d4"/><path d="M350.75,526.82v2.83h-1.6v-2.83a10.09,10.09,0,0,1-6.08-2.17l.92-2a8.76,8.76,0,0,0,5.16,2v-5.81c-2.75-.68-5.66-1.55-5.66-5,0-2.47,1.78-4.63,5.66-4.95v-2.86h1.6V509a10.07,10.07,0,0,1,5.08,1.53l-.82,2a9.14,9.14,0,0,0-4.26-1.4v5.83c2.8.7,5.81,1.53,5.81,5C356.56,524.35,354.71,526.5,350.75,526.82Zm-1.6-10.31v-5.4c-2.23.27-3.21,1.4-3.21,2.72C345.94,515.38,347.35,516,349.15,516.51Zm5,5.51c0-1.6-1.51-2.23-3.36-2.73v5.38C353.08,524.45,354.11,523.37,354.11,522Z" fill="#d1d3d4"/><path d="M380.76,522.34h-3.33v4.31H375v-4.31h-9.73v-1.75l9-11.46h2.7l-8.59,11.06h6.74v-3.8h2.35v3.8h3.33Z" fill="#d1d3d4"/><path d="M382.26,517.89c0-5.71,3.05-9,7.16-9s7.13,3.25,7.13,9-3.05,9-7.13,9S382.26,523.6,382.26,517.89Zm11.79,0c0-4.48-1.9-6.73-4.63-6.73s-4.66,2.25-4.66,6.73,1.91,6.73,4.66,6.73S394.05,522.37,394.05,517.89Z" fill="#d1d3d4"/><path d="M398.6,525.07a1.67,1.67,0,0,1,1.7-1.7,1.65,1.65,0,0,1,1.66,1.7,1.67,1.67,0,0,1-1.66,1.73A1.7,1.7,0,0,1,398.6,525.07Z" fill="#d1d3d4"/><path d="M418.4,521.69c0,3.18-2.7,5.16-7,5.16s-6.94-2-6.94-5.16a4.34,4.34,0,0,1,3.08-4.23,4,4,0,0,1-2.45-3.78c0-2.92,2.53-4.75,6.31-4.75s6.35,1.83,6.35,4.75a4,4,0,0,1-2.48,3.78A4.36,4.36,0,0,1,418.4,521.69Zm-2.5-.07c0-1.93-1.71-3.13-4.48-3.13s-4.44,1.2-4.44,3.13,1.66,3.2,4.44,3.2S415.9,523.6,415.9,521.62Zm-8.31-7.84c0,1.73,1.42,2.81,3.83,2.81s3.9-1.08,3.9-2.81-1.55-2.82-3.9-2.82S407.59,512,407.59,513.78Z" fill="#d1d3d4"/><path d="M420.7,517.89c0-5.71,3.05-9,7.16-9s7.13,3.25,7.13,9-3.05,9-7.13,9S420.7,523.6,420.7,517.89Zm11.79,0c0-4.48-1.9-6.73-4.63-6.73s-4.66,2.25-4.66,6.73,1.91,6.73,4.66,6.73S432.49,522.37,432.49,517.89Z" fill="#d1d3d4"/><rect x="355.71" y="246.98" width="167.18" height="158.56" rx="6.79" transform="translate(-0.52 0.7) rotate(-0.09)" fill="#e6e7e8"/><rect x="407.86" y="346.25" width="3.43" height="30.07" transform="translate(-0.56 0.64) rotate(-0.09)" fill="#d1d3d4"/><rect x="419.92" y="346.24" width="3.43" height="15.35" transform="translate(-0.58 0.7) rotate(-0.09)" fill="#d1d3d4"/><rect x="454.38" y="346.18" width="3.43" height="15.35" transform="translate(-0.57 0.73) rotate(-0.09)" fill="#d1d3d4"/><rect x="469.6" y="346.16" width="3.43" height="30.07" transform="translate(-0.58 0.76) rotate(-0.09)" fill="#d1d3d4"/><path d="M398.24,314.76l9.68,33,65-.11L483.15,316s-6.84-2.17-11.19-1.23l-1.28-35.15a4.84,4.84,0,0,0-6.77-4.26l-6.31,2.77-36.67,0-4.22-2.1a4.78,4.78,0,0,0-6.91,4.32l.31,34.78A27.82,27.82,0,0,0,398.24,314.76Z" fill="#fafafa"/><path d="M420.69,332a25.16,25.16,0,0,0,13.72,7.62,38.45,38.45,0,0,0,15.84-.33c2.85-.6,5.9-1.64,7.38-4.14s.87-5.83.18-8.74c-.9-3.74-1.81-7.53-3.71-10.87s-5-6.21-8.71-7c-5.09-1.06-10.19,1.9-14,5.49a39.26,39.26,0,0,0-10.51,17.32" fill="#e1e1e1"/><path d="M421.59,328.64c-.26,0-.49-11.26-.51-25.15s.17-25.15.43-25.15.48,11.26.51,25.15S421.85,328.64,421.59,328.64Z" fill="#d1d3d4"/><path d="M458.32,328.58c-.26,0-.49-11.26-.51-25.14s.17-25.16.43-25.16.49,11.26.51,25.15S458.58,328.58,458.32,328.58Z" fill="#d1d3d4"/><path d="M472,314.74a8.26,8.26,0,0,1-1.69.51l-.91.23-1.06.41-1.23.47-1.29.71a13.31,13.31,0,0,0-5.12,5.22,16.37,16.37,0,0,0-1.77,9.19l0,.48h-.46l-17.38.07-19.49,0h-.4v-.41a17.71,17.71,0,0,0-2.3-8.35,18.81,18.81,0,0,0-4.31-5.24,25.9,25.9,0,0,0-5.08-3.16,6.8,6.8,0,0,1,1.52.49,16.38,16.38,0,0,1,3.87,2.3,18.49,18.49,0,0,1,4.59,5.27,18.28,18.28,0,0,1,2.54,8.68l-.42-.41,19.49-.08h17.38l-.42.48a16.82,16.82,0,0,1,2-9.64,13.5,13.5,0,0,1,5.49-5.32l1.36-.69,1.28-.42,1.09-.36.95-.17A9,9,0,0,1,472,314.74Z" fill="#d1d3d4"/><path d="M420.89,331.81c0,.15-1.21.38-3,1.21a15.16,15.16,0,0,0-8.82,11.77c-.29,2-.16,3.21-.32,3.23a6.77,6.77,0,0,1-.34-3.3,14.17,14.17,0,0,1,9.23-12.31A6.57,6.57,0,0,1,420.89,331.81Z" fill="#d1d3d4"/><path d="M472.3,348.37c-.16,0-.19-1.39-.73-3.52a18.12,18.12,0,0,0-10.76-12.41c-2-.84-3.4-1.07-3.38-1.22a8,8,0,0,1,3.61.6,16.79,16.79,0,0,1,11.18,12.89A8.08,8.08,0,0,1,472.3,348.37Z" fill="#d1d3d4"/><path d="M523.87,525l-.17,0-.12,0a1.06,1.06,0,0,1-.26-.17l-5.46-5.57a6.69,6.69,0,0,1-1.69-6.67,4.45,4.45,0,0,1,7.22-1.93,4.28,4.28,0,0,1,.48.59,4.68,4.68,0,0,1,.5-.62,4.23,4.23,0,0,1,3.09-1.12,4.11,4.11,0,0,1,4.11,3.08h0a6.67,6.67,0,0,1-1.7,6.67l-5.45,5.57A.78.78,0,0,1,523.87,525Zm-3.5-14h-.07a2.59,2.59,0,0,0-2.68,2,5.14,5.14,0,0,0,1.34,5.13l4.91,5,4.91-5a5.13,5.13,0,0,0,1.33-5.13,2.58,2.58,0,0,0-2.67-2,2.61,2.61,0,0,0-2,.69,3.49,3.49,0,0,0-.81,2.24.67.67,0,0,1-.08.37.77.77,0,0,1-1.45-.33h0v-.1a3.39,3.39,0,0,0-.81-2.19A2.6,2.6,0,0,0,520.37,511Z" fill="#d1d3d4"/><path d="M497,204c0,.22-25.82.39-57.68.39s-57.68-.17-57.68-.39,25.82-.4,57.68-.4S497,203.76,497,204Z" fill="#d1d3d4"/><rect x="395.34" y="187.98" width="85.94" height="4.9" fill="#d1d3d4"/><path d="M517.33,447.91c0,.22-34.94.4-78,.4s-78-.18-78-.4,34.93-.4,78-.4S517.33,447.69,517.33,447.91Z" fill="#d1d3d4"/><path d="M495.37,434.45c0,.22-25.11.4-56.07.4s-56.06-.18-56.06-.4,25.09-.4,56.06-.4S495.37,434.23,495.37,434.45Z" fill="#d1d3d4"/><path d="M545.32,137.68a39,39,0,0,1-5.75.31c-3.58.09-8.56.15-14.17.17H525l-.06-.39c-.1-.75-.22-1.54-.33-2.34-1-6.89-1.78-13-2.24-17l.28.25a33.09,33.09,0,0,1-5.12-.28,32.71,32.71,0,0,1,5.12-.3h.24l.05.25c.66,4,1.59,10.1,2.56,17,.12.8.23,1.6.33,2.35l-.44-.39c5.6,0,10.59.05,14.17.13A37.8,37.8,0,0,1,545.32,137.68Z" fill="#d1d3d4"/><path d="M524.81,133.58a6.11,6.11,0,0,1,1.54-.14l4.26-.14c3.64-.08,8.77-.14,14.7-.18l-.42.36,1.37-7.93c.25-1.42.5-2.82.73-4.16l.44.53c-6.89,0-13-.06-17.33-.13l-5.13-.12a8,8,0,0,1-1.86-.16,8,8,0,0,1,1.86-.16l5.13-.15c4.36-.08,10.44-.15,17.33-.18H548l-.09.53c-.23,1.33-.48,2.73-.72,4.16-.49,2.76-1,5.43-1.41,7.92l-.06.36h-.36c-5.94,0-11.07-.06-14.71-.13l-4.26-.12A5.76,5.76,0,0,1,524.81,133.58Z" fill="#d1d3d4"/><path d="M530.39,143.11c-.14,0-.16-.78-1-1.33a1.7,1.7,0,0,0-1.55-.15,1.6,1.6,0,0,0,0,3,1.72,1.72,0,0,0,1.55-.16c.83-.55.84-1.36,1-1.33s.13.18.11.53a2,2,0,0,1-.7,1.31,2.3,2.3,0,0,1-2.22.43,2.39,2.39,0,0,1,0-4.53,2.31,2.31,0,0,1,2.22.42,2,2,0,0,1,.7,1.31C530.52,142.93,530.44,143.11,530.39,143.11Z" fill="#d1d3d4"/><path d="M543.21,143.09c-.14,0-.15-.78-1-1.33a1.7,1.7,0,0,0-1.55-.15,1.6,1.6,0,0,0,0,3,1.72,1.72,0,0,0,1.55-.16c.83-.55.84-1.36,1-1.33s.14.18.11.53a2,2,0,0,1-.7,1.31,2.32,2.32,0,0,1-2.22.43,2.4,2.4,0,0,1,0-4.53,2.31,2.31,0,0,1,2.22.42,2,2,0,0,1,.71,1.31C543.35,142.91,543.27,143.09,543.21,143.09Z" fill="#d1d3d4"/><path d="M556.43,120.23a8.48,8.48,0,1,1-8.48-8.47A8.46,8.46,0,0,1,556.43,120.23Z" fill="#e6e7e8"/><path d="M548.74,116.82v6.85h-1v-6h-1.54v-.85Z" fill="#fff"/><rect x="194.4" y="531.16" width="20.22" height="135.02" fill="#d1d3d4"/><rect x="180.03" y="514.94" width="153.43" height="18.69" fill="#d1d3d4"/><rect x="205.7" y="588.74" width="105.49" height="18.69" fill="#d1d3d4"/><rect x="301.08" y="531.16" width="20.22" height="135.02" fill="#d1d3d4"/><path d="M219.05,524.42a17.22,17.22,0,0,1-4.3,1.83,21.73,21.73,0,0,1-12.39,0l-.21-.06.16-.15a26.87,26.87,0,0,1,9.53-6,28.47,28.47,0,0,1,12.89-1.47,27.2,27.2,0,0,1,4.16.89,12.13,12.13,0,0,1,3.81,1.66,3.76,3.76,0,0,1,1.63,3.58,4,4,0,0,1-2.71,2.65,60.16,60.16,0,0,1-12.86,2.93,61.86,61.86,0,0,1-8.88.39c-2.1-.07-3.25-.21-3.25-.21s.29,0,.84,0l2.41.07a65.9,65.9,0,0,0,8.85-.49,60.47,60.47,0,0,0,12.77-3,3.7,3.7,0,0,0,2.53-2.43,3.42,3.42,0,0,0-1.52-3.27,12.14,12.14,0,0,0-3.71-1.61,26.54,26.54,0,0,0-4.11-.87A28.1,28.1,0,0,0,212,520.33a26.83,26.83,0,0,0-9.46,5.84l-.06-.21a21.88,21.88,0,0,0,12.28.15,23.61,23.61,0,0,0,3.24-1.18C218.66,524.59,219.05,524.42,219.05,524.42Z" fill="#1a2e35"/><polygon points="177.28 579.29 170.2 634.63 197.44 637.43 217.34 583.07 177.28 579.29" fill="#f9b499"/><polygon points="219.31 580.04 225.91 631.04 250.38 627.5 253.71 577.11 219.31 580.04" fill="#f9b499"/><path d="M337.19,453.21s14.88,52.94-25.7,62.12l-64.74.64L207.67,620.32l-39-2.73,14.24-117.22a34.53,34.53,0,0,1,26.93-29.8l83.85-18.33Z" fill="#002c3c"/><path d="M215.54,220C186,215,183.29,241.64,183.48,249.3s2.82,14.44,5.51,21.61,1,16.95-1.28,24.27c-2.66,8.56-11.11,16.42-8.09,24.86,2.37,6.63,11.13,9.88,12.2,16.84.85,5.51-3.58,10.3-5.22,15.63-3.09,10.05,4,20.12,10.64,28.26,2.75,3.36,6.07,7,10.41,7.07,6,.08,9.56-6.41,12.27-11.76a102.21,102.21,0,0,1,32.22-37.26" fill="#002c3c"/><path d="M149.21,383.22l-17.38-17.59a1.25,1.25,0,0,0-1.22-.33l-20.16,5.2a1.26,1.26,0,0,0-.6,2.1l33.36,34.74s24.95-6.79,24.21-7.12S149.21,383.22,149.21,383.22Z" fill="#002c3c"/><path d="M125.38,392.58l.38-.95a2.6,2.6,0,0,1,2.57-1.64c4.06.21,13.3.74,13.29,1.07s.86,2.77-2,3.53-8.17.06-8.17.06l4.32,4.91,1.4-1.85a2,2,0,0,1,1.63-.58l7.64.91s.68,3-1.59,3.46a20.73,20.73,0,0,1-5.09.22l-.88,5.62,8.06,6.21-3,4.5-10.66-5.39-1.71-5.45a2.6,2.6,0,0,1,.13-1.9l.57-1.22-2-1.42a2.61,2.61,0,0,1-1.08-2.58l.26-1.53-3.37-3.09A2.61,2.61,0,0,1,125.38,392.58Z" fill="#f9b499"/><polygon points="160.65 408.48 160.65 408.48 155.35 403.97 139.72 401.73 138.84 407.34 133.29 412.66 154.4 423.33 160.65 408.48" fill="#f9b499"/><path d="M153.05,384.45a4.4,4.4,0,0,0,3.07-1l.87-.73a5.83,5.83,0,0,1,5.94-2.16l12,4.65,13,10.51L181.46,412l-22.3-5.8a9.09,9.09,0,0,1-5.62-4.32L151.4,398s-7.59-2.95-7-7.18l-16.62-3.45A2.44,2.44,0,0,1,129.3,384C131.41,383.16,147.65,384.1,153.05,384.45Z" fill="#f9b499"/><path d="M130.26,392.57c1.34,2,9.93,2.29,10.74,2.13a2.66,2.66,0,0,1,2,.36,1.15,1.15,0,0,1-.2,2L135,400.36Z" fill="#f9b499"/><g opacity="0.3"><path d="M249.79,430.74c3.25.35,8.08-.95,10.24-3.41s4.59-5,6-8c3-6.22,8.3-14.39,11-19.51.17,1.49-4.31,16.27-4.72,23.42-.22,3.92,0,8.17,2.47,11.26,1.67,2.13,4.18,3.44,6,5.44a11.8,11.8,0,0,1,.83,14.45c-1.57,2.17-4.4,3.82-6.91,2.87a6,6,0,0,1-3-3,31,31,0,0,1-1.5-4.11,27.61,27.61,0,0,0-11.38-14.32c-2.65-1.66-5.65-4-8.5-5.35"/></g><path d="M153.3,426l33.25,11.12a33.67,33.67,0,0,0,34-7.45l11.75-11.13-34.74-9.38-18.63,2.1-17.2-5.52Z" fill="#00adef"/><path d="M187.29,420.17c.05,0,.55.82,1.46,2.12a35.23,35.23,0,0,0,4,4.75,36.4,36.4,0,0,0,4.78,3.95c1.31.9,2.17,1.39,2.14,1.44a3.12,3.12,0,0,1-.63-.3,18.55,18.55,0,0,1-1.63-.95,30,30,0,0,1-8.85-8.76c-.43-.67-.76-1.23-1-1.63A2.94,2.94,0,0,1,187.29,420.17Z" fill="#fafafa"/><path d="M194.47,423.18a10.35,10.35,0,0,0,2,7.27,7.4,7.4,0,0,1-2-7.27Z" fill="#fafafa"/><path d="M191.07,420.69c.1,0,.14,1.51.59,3.3s1.11,3.15,1,3.19a8,8,0,0,1-1.34-3.11A8.32,8.32,0,0,1,191.07,420.69Z" fill="#fafafa"/><path d="M189.4,427.45a7.58,7.58,0,0,1,2.79.47,7.4,7.4,0,0,1,2.57,1.17c0,.08-1.19-.42-2.67-.87S189.39,427.54,189.4,427.45Z" fill="#fafafa"/><path d="M186.23,423.55a9.35,9.35,0,0,1,3.34,1.28,9.14,9.14,0,0,1,2.81,2.21c-.07.07-1.27-1-3-1.93S186.2,423.64,186.23,423.55Z" fill="#fafafa"/><path d="M190,427.5a2.61,2.61,0,0,0-1.42-.81c-.19,0-.42,0-.51.14a.33.33,0,0,0,.13.41,1,1,0,0,0,.44.13,3.25,3.25,0,0,0-.65.38c-.09.07-.19.18-.13.28s.18.1.29.08l.75-.16c-.06.12-.21.17-.32.25s-.21.25-.11.34.22,0,.31,0a3.71,3.71,0,0,0,1.13-1" fill="#fafafa"/><path d="M191,421.1a.14.14,0,0,0,0,.23.24.24,0,0,0,.27,0,.63.63,0,0,0,.17-.23,4.08,4.08,0,0,0,.53-1.55.34.34,0,0,0-.1-.32c-.1-.07-.25,0-.35.06a1.36,1.36,0,0,0-.55,1.08,1.9,1.9,0,0,0,0-1c0-.13-.13-.27-.26-.25s-.17.15-.19.27a2.76,2.76,0,0,0,0,1.07,1.17,1.17,0,0,0-.62-.84.33.33,0,0,0-.29,0,.22.22,0,0,0-.08.24.56.56,0,0,0,.13.24,6,6,0,0,0,1.43,1.31" fill="#fafafa"/><path d="M187.33,420.15c-.09.08,0,.24.11.27a.29.29,0,0,0,.29-.16.76.76,0,0,0,.08-.33,4.88,4.88,0,0,0-.23-2c-.05-.13-.13-.28-.28-.31s-.3.11-.37.25a1.6,1.6,0,0,0-.05,1.46,2.38,2.38,0,0,0-.59-1.12c-.12-.12-.3-.23-.43-.14s-.11.25-.07.39a3.23,3.23,0,0,0,.61,1.16,1.49,1.49,0,0,0-1.15-.61.37.37,0,0,0-.34.12.26.26,0,0,0,0,.3.76.76,0,0,0,.27.2,7.94,7.94,0,0,0,2.32.73" fill="#fafafa"/><path d="M167.59,410.87s-.27,1-.65,2.5a34.27,34.27,0,0,0-.84,12.33c.18,1.58.37,2.55.31,2.56a3.14,3.14,0,0,1-.19-.67,18.35,18.35,0,0,1-.34-1.87,29.29,29.29,0,0,1-.23-6.25,30.09,30.09,0,0,1,1.07-6.16c.22-.77.43-1.38.59-1.8A3.16,3.16,0,0,1,167.59,410.87Z" fill="#fafafa"/><path d="M170,418.28a13.51,13.51,0,0,0-2.7,2.72,13,13,0,0,0-1.51,3.52,7.37,7.37,0,0,1,4.21-6.24Z" fill="#fafafa"/><path d="M169.67,414.08c.07.07-1,1.09-2.11,2.6s-1.66,2.9-1.75,2.86a8.46,8.46,0,0,1,1.49-3.05A8,8,0,0,1,169.67,414.08Z" fill="#fafafa"/><path d="M163.46,417.23a7.61,7.61,0,0,1,1.47,2.41,7.73,7.73,0,0,1,.8,2.72c-.09,0-.46-1.18-1.09-2.59S163.38,417.28,163.46,417.23Z" fill="#fafafa"/><path d="M164.34,412.28a12,12,0,0,1,1.38,6.93c-.1,0-.09-1.59-.48-3.5S164.25,412.32,164.34,412.28Z" fill="#fafafa"/><path d="M163.81,417.72a2.57,2.57,0,0,0-.32-1.61c-.09-.17-.25-.34-.44-.3a.34.34,0,0,0-.22.37,1,1,0,0,0,.19.42,3.75,3.75,0,0,0-.71-.25c-.11,0-.26,0-.31.09s.06.2.14.27l.61.46c-.13,0-.27,0-.4-.08s-.32,0-.33.15.12.18.23.21a3.56,3.56,0,0,0,1.48.22" fill="#fafafa"/><path d="M169.3,414.27c-.08,0-.19.06-.18.15a.21.21,0,0,0,.19.19.54.54,0,0,0,.28,0,3.91,3.91,0,0,0,1.51-.61c.1-.07.2-.16.19-.28s-.16-.2-.28-.23a1.37,1.37,0,0,0-1.17.29,2,2,0,0,0,.75-.71c.07-.11.12-.27,0-.35s-.23,0-.33,0a2.76,2.76,0,0,0-.79.73,1.17,1.17,0,0,0,.23-1,.32.32,0,0,0-.17-.23.23.23,0,0,0-.24.09.8.8,0,0,0-.09.26,5.69,5.69,0,0,0-.06,1.93" fill="#fafafa"/><path d="M167.63,410.89c-.12,0-.19.15-.13.26a.31.31,0,0,0,.31.12.73.73,0,0,0,.3-.16,4.79,4.79,0,0,0,1.34-1.46.41.41,0,0,0,.05-.41c-.08-.14-.28-.15-.43-.12a1.58,1.58,0,0,0-1.13.92,2.41,2.41,0,0,0,.45-1.19c0-.16,0-.37-.17-.42s-.26.09-.34.21a3.39,3.39,0,0,0-.48,1.22,1.46,1.46,0,0,0-.29-1.27.39.39,0,0,0-.31-.18.28.28,0,0,0-.21.23.93.93,0,0,0,0,.33,7.69,7.69,0,0,0,1,2.24" fill="#fafafa"/><path d="M313.38,406.47a33.64,33.64,0,0,1-8.09-23.87q.06-.81.15-1.65c2.13-19.8,6-52.07-1.63-68.11-5-10.54-36.13-15.48-36.13-15.48l-36,7.42-16.53,14.5a15,15,0,0,0-4.92,8.9L195.1,422.51l30.64-2.19,2.37-27.39,3.42,36.18s29.09,22.63,38.52,26.82,25.93-7.49,38.65-2.31,29.23,0,29.23,0C338.61,438.59,322.36,417.13,313.38,406.47Z" fill="#00adef"/><path d="M285.55,308.39l-46.29,83.92-50,.87-8.5,21.34,64.65,14.87c7.4,1.27,13.05.33,17.79-5.48l42.54-79.34S309.11,309.33,285.55,308.39Z" fill="#00adef"/><g opacity="0.2"><path d="M285.55,308.39l-46.29,83.92-50,.87-8.5,21.34,64.65,14.87c7.4,1.27,13.05.33,17.79-5.48l42.54-79.34S309.11,309.33,285.55,308.39Z"/></g><path d="M282.44,337.29a4.52,4.52,0,0,1-.45.78c-.32.48-.76,1.2-1.27,2.09a44.09,44.09,0,0,0-5.37,15.13c-.16,1-.28,1.85-.34,2.43a4.89,4.89,0,0,1-.13.89,4.76,4.76,0,0,1,0-.9c0-.58.1-1.42.24-2.45a39.55,39.55,0,0,1,5.39-15.21c.55-.89,1-1.59,1.36-2.05A5.5,5.5,0,0,1,282.44,337.29Z" fill="#fafafa"/><path d="M282.87,347.39a15.4,15.4,0,0,0-4.36,2.42,15.24,15.24,0,0,0-3.1,3.91,4.71,4.71,0,0,1,.59-1.37,10.48,10.48,0,0,1,2.31-2.78,10.27,10.27,0,0,1,3.11-1.82A4.57,4.57,0,0,1,282.87,347.39Z" fill="#fafafa"/><path d="M283.92,342c0,.09-1.73,1-3.59,2.48s-3.07,3.07-3.15,3a4.54,4.54,0,0,1,.73-1.06,15.91,15.91,0,0,1,2.22-2.19,15.34,15.34,0,0,1,2.6-1.72A4.09,4.09,0,0,1,283.92,342Z" fill="#fafafa"/><path d="M275.05,343.79a11.63,11.63,0,0,1,.94,3.54,11.47,11.47,0,0,1,.1,3.66c-.1,0-.12-1.63-.41-3.61S275,343.82,275.05,343.79Z" fill="#fafafa"/><path d="M277.88,337.91a4.58,4.58,0,0,1,.25,1.34,18.57,18.57,0,0,1-.5,6.53,4.76,4.76,0,0,1-.45,1.28c-.1,0,.49-2,.68-4.55S277.78,337.92,277.88,337.91Z" fill="#fafafa"/><path d="M275.31,344.52a3.29,3.29,0,0,0,.17-2.12c-.06-.24-.19-.52-.44-.53a.45.45,0,0,0-.41.38,1.25,1.25,0,0,0,.08.6,3.91,3.91,0,0,0-.79-.56c-.14-.07-.32-.12-.41,0s0,.27.07.38l.6.8c-.18,0-.32-.15-.47-.24s-.41-.11-.46.06.08.27.2.35a4.84,4.84,0,0,0,1.78.79" fill="#fafafa"/><path d="M283.39,342.14c-.09-.08-.26,0-.29.12a.3.3,0,0,0,.17.3.76.76,0,0,0,.36.08,5.37,5.37,0,0,0,2.11-.23c.14-.05.31-.14.33-.29s-.13-.31-.27-.39a1.77,1.77,0,0,0-1.57,0,2.53,2.53,0,0,0,1.19-.62c.13-.12.25-.3.15-.45s-.27-.11-.42-.06a3.39,3.39,0,0,0-1.24.63,1.52,1.52,0,0,0,.64-1.2.4.4,0,0,0-.13-.35.31.31,0,0,0-.33,0,1,1,0,0,0-.21.28,7.58,7.58,0,0,0-.74,2.41" fill="#fafafa"/><path d="M282.48,337.32c-.14-.05-.29.13-.25.28a.39.39,0,0,0,.34.27,1.13,1.13,0,0,0,.44-.1,6.51,6.51,0,0,0,2.18-1.36.55.55,0,0,0,.21-.5c-.06-.2-.3-.28-.5-.3a2,2,0,0,0-1.73.76,3.11,3.11,0,0,0,1-1.33c.07-.19.11-.47-.07-.58s-.36,0-.5.14a4.13,4.13,0,0,0-1,1.36,2,2,0,0,0,.08-1.7.52.52,0,0,0-.33-.33.36.36,0,0,0-.34.22,1.22,1.22,0,0,0-.08.43,9.79,9.79,0,0,0,.43,3.13" fill="#fafafa"/><path d="M239.88,363.39a4.52,4.52,0,0,1-.45.78c-.32.48-.76,1.2-1.27,2.09a44.09,44.09,0,0,0-5.37,15.13c-.16,1-.27,1.85-.34,2.43a4.89,4.89,0,0,1-.13.89,4.76,4.76,0,0,1,0-.9c0-.58.1-1.42.24-2.45A39.39,39.39,0,0,1,238,366.15c.55-.89,1-1.59,1.36-2A5.5,5.5,0,0,1,239.88,363.39Z" fill="#fafafa"/><path d="M240.31,373.49a12.75,12.75,0,0,0-7.46,6.33,4.71,4.71,0,0,1,.59-1.37,10.48,10.48,0,0,1,2.31-2.78,10.27,10.27,0,0,1,3.11-1.82A4.57,4.57,0,0,1,240.31,373.49Z" fill="#fafafa"/><path d="M241.36,368.12c0,.09-1.73.95-3.59,2.48s-3.07,3.07-3.15,3a4.54,4.54,0,0,1,.73-1.06,15.91,15.91,0,0,1,2.22-2.19,16.12,16.12,0,0,1,2.6-1.73A3.87,3.87,0,0,1,241.36,368.12Z" fill="#fafafa"/><path d="M232.49,369.89a15.45,15.45,0,0,1,1,7.2c-.1,0-.12-1.63-.41-3.62S232.4,369.92,232.49,369.89Z" fill="#fafafa"/><path d="M235.32,364a4.58,4.58,0,0,1,.25,1.34,18.61,18.61,0,0,1-.5,6.53,4.76,4.76,0,0,1-.45,1.28c-.1,0,.49-2,.68-4.55S235.22,364,235.32,364Z" fill="#fafafa"/><path d="M232.75,370.62a3.29,3.29,0,0,0,.17-2.12c-.06-.24-.19-.52-.44-.53a.45.45,0,0,0-.41.38,1.25,1.25,0,0,0,.08.6,3.91,3.91,0,0,0-.79-.56c-.14-.07-.32-.12-.41,0s0,.27.07.38l.6.8c-.18,0-.32-.15-.47-.25s-.41-.1-.46.07.08.27.2.35a4.84,4.84,0,0,0,1.78.79" fill="#fafafa"/><path d="M240.83,368.24c-.09-.08-.26,0-.29.12a.3.3,0,0,0,.17.3.9.9,0,0,0,.36.08,5.37,5.37,0,0,0,2.11-.23c.14-.06.31-.14.33-.29s-.12-.31-.27-.39a1.77,1.77,0,0,0-1.57,0,2.53,2.53,0,0,0,1.19-.62c.13-.12.25-.3.15-.45s-.27-.11-.42-.07a3.57,3.57,0,0,0-1.24.64,1.52,1.52,0,0,0,.64-1.2.4.4,0,0,0-.13-.35.31.31,0,0,0-.33,0,1,1,0,0,0-.21.28,7.58,7.58,0,0,0-.74,2.41" fill="#fafafa"/><path d="M239.92,363.42c-.14-.05-.29.13-.25.28a.38.38,0,0,0,.34.26,1,1,0,0,0,.44-.09,6.51,6.51,0,0,0,2.18-1.36.55.55,0,0,0,.21-.5c-.06-.2-.3-.28-.5-.3a2.06,2.06,0,0,0-1.73.75,3,3,0,0,0,1-1.32c.07-.19.11-.47-.07-.58s-.36,0-.5.14a4.13,4.13,0,0,0-1,1.36,2,2,0,0,0,.08-1.7.52.52,0,0,0-.33-.33.36.36,0,0,0-.34.22,1,1,0,0,0-.07.43,9.78,9.78,0,0,0,.42,3.13" fill="#fafafa"/><path d="M241.93,409.18a4.74,4.74,0,0,1,.89-.1c.58,0,1.42-.11,2.44-.23a44.09,44.09,0,0,0,15.35-4.71c.91-.48,1.65-.89,2.15-1.18a4.68,4.68,0,0,1,.79-.42,5.64,5.64,0,0,1-.73.53c-.48.32-1.2.76-2.11,1.27a39.57,39.57,0,0,1-15.42,4.73c-1,.1-1.88.14-2.46.14A5.29,5.29,0,0,1,241.93,409.18Z" fill="#fafafa"/><path d="M249.78,402.81a15.35,15.35,0,0,0,4.54,2.05,14.75,14.75,0,0,0,5,.16,4.18,4.18,0,0,1-1.45.35,10.33,10.33,0,0,1-6.93-1.61A4.68,4.68,0,0,1,249.78,402.81Z" fill="#fafafa"/><path d="M244.85,405.18c0-.09,1.79.81,4.12,1.4s4.3.63,4.3.73a4.05,4.05,0,0,1-1.3.05,16.31,16.31,0,0,1-3.08-.47,16.54,16.54,0,0,1-2.93-1.06A4.44,4.44,0,0,1,244.85,405.18Z" fill="#fafafa"/><path d="M251.56,411.24a11.08,11.08,0,0,1,2.27-2.87,11.24,11.24,0,0,1,2.89-2.26c0,.08-1.25,1.07-2.66,2.48S251.63,411.3,251.56,411.24Z" fill="#fafafa"/><path d="M245.15,412.47a4.86,4.86,0,0,1,.92-1,19.41,19.41,0,0,1,2.61-2,18.18,18.18,0,0,1,2.93-1.5,4.52,4.52,0,0,1,1.3-.4c0,.09-1.91.81-4.06,2.17S245.22,412.55,245.15,412.47Z" fill="#fafafa"/><path d="M252,410.59a3.37,3.37,0,0,0-1.8,1.13c-.16.19-.3.47-.16.67a.44.44,0,0,0,.55.1,1.33,1.33,0,0,0,.43-.42,3.51,3.51,0,0,0,0,1c0,.15.09.33.24.33s.22-.15.26-.29c.1-.32.2-.63.29-1,.1.15.06.35.08.53s.16.39.33.33.16-.23.16-.37a4.83,4.83,0,0,0-.43-1.9" fill="#fafafa"/><path d="M245.26,405.53a.19.19,0,0,0,.26.16.34.34,0,0,0,.15-.32,1,1,0,0,0-.16-.34,5.33,5.33,0,0,0-1.44-1.55.46.46,0,0,0-.43-.09c-.15.08-.17.28-.15.45a1.78,1.78,0,0,0,.9,1.28,2.59,2.59,0,0,0-1.21-.59c-.17,0-.39,0-.44.15s.07.29.19.38a3.49,3.49,0,0,0,1.25.62,1.49,1.49,0,0,0-1.34.2.36.36,0,0,0-.2.31.29.29,0,0,0,.22.24.83.83,0,0,0,.35,0,7.43,7.43,0,0,0,2.38-.84" fill="#fafafa"/><path d="M241.93,409.13a.22.22,0,0,0,.37,0,.36.36,0,0,0,0-.43,1.07,1.07,0,0,0-.34-.29,6.22,6.22,0,0,0-2.38-.94.55.55,0,0,0-.53.13.54.54,0,0,0,.05.58,2.08,2.08,0,0,0,1.64.94,3,3,0,0,0-1.64,0c-.21.06-.45.19-.43.4s.23.28.41.32a4.23,4.23,0,0,0,1.7,0,2,2,0,0,0-1.41.95.51.51,0,0,0-.07.46.36.36,0,0,0,.38.14,1.09,1.09,0,0,0,.39-.19,10.08,10.08,0,0,0,2.26-2.21" fill="#fafafa"/><path d="M289.06,442.54a5.2,5.2,0,0,1,.87.25c.54.19,1.34.43,2.34.71a44,44,0,0,0,16,1.45c1-.09,1.86-.19,2.43-.27a4,4,0,0,1,.9-.09,6,6,0,0,1-.88.21c-.57.12-1.4.25-2.43.37a39.24,39.24,0,0,1-16.07-1.45c-1-.31-1.79-.59-2.33-.81A4.7,4.7,0,0,1,289.06,442.54Z" fill="#fafafa"/><path d="M298.74,439.62a12.77,12.77,0,0,0,8,5.66,4.56,4.56,0,0,1-1.48-.23,10.5,10.5,0,0,1-5.8-4.11A4.39,4.39,0,0,1,298.74,439.62Z" fill="#fafafa"/><path d="M293.28,439.94c.07-.06,1.35,1.44,3.28,2.86s3.74,2.22,3.7,2.31a4,4,0,0,1-1.21-.45,16,16,0,0,1-2.68-1.6,16.19,16.19,0,0,1-2.31-2.09A3.81,3.81,0,0,1,293.28,439.94Z" fill="#fafafa"/><path d="M297.19,448.1a11.29,11.29,0,0,1,3.19-1.8,11.69,11.69,0,0,1,3.53-1c0,.1-1.56.52-3.4,1.29S297.24,448.18,297.19,448.1Z" fill="#fafafa"/><path d="M290.79,446.81a4.82,4.82,0,0,1,1.23-.57,17.72,17.72,0,0,1,3.18-.86,18.5,18.5,0,0,1,3.27-.28,4.69,4.69,0,0,1,1.36.12c0,.1-2.08,0-4.58.47S290.83,446.91,290.79,446.81Z" fill="#fafafa"/><path d="M297.83,447.66a3.4,3.4,0,0,0-2.1.36c-.22.12-.45.32-.4.56a.43.43,0,0,0,.47.3,1.2,1.2,0,0,0,.56-.23,3.85,3.85,0,0,0-.34.91c0,.15,0,.34.1.4s.26-.06.35-.17l.63-.78a1,1,0,0,1-.13.52c-.05.17,0,.42.18.43s.24-.15.29-.28a4.68,4.68,0,0,0,.32-1.92" fill="#fafafa"/><path d="M293.52,440.42a.19.19,0,0,0,.19.25.3.3,0,0,0,.25-.24.92.92,0,0,0,0-.37,5.42,5.42,0,0,0-.75-2,.46.46,0,0,0-.37-.25c-.16,0-.26.2-.3.36a1.79,1.79,0,0,0,.34,1.53,2.46,2.46,0,0,0-.89-1c-.14-.09-.35-.16-.47,0s0,.29,0,.42a3.44,3.44,0,0,0,.92,1.05,1.5,1.5,0,0,0-1.32-.33.38.38,0,0,0-.3.22.29.29,0,0,0,.12.31.73.73,0,0,0,.32.12,7.36,7.36,0,0,0,2.52.13" fill="#fafafa"/><path d="M289.08,442.5a.22.22,0,0,0,.33.17.36.36,0,0,0,.17-.39.89.89,0,0,0-.2-.4,6.4,6.4,0,0,0-1.85-1.78A.56.56,0,0,0,287,440a.54.54,0,0,0-.17.56,2.09,2.09,0,0,0,1.16,1.49,3,3,0,0,0-1.52-.62c-.21,0-.48,0-.55.21s.11.34.26.45a4.26,4.26,0,0,0,1.57.65,1.91,1.91,0,0,0-1.66.35c-.13.1-.26.24-.24.39a.35.35,0,0,0,.29.28,1,1,0,0,0,.43,0,10,10,0,0,0,2.93-1.19" fill="#fafafa"/><path d="M268.56,372.55c.05,0,.06,1,.21,2.57a35.84,35.84,0,0,0,1.13,6.1,36.26,36.26,0,0,0,2.2,5.8c.69,1.43,1.2,2.28,1.15,2.31a2.84,2.84,0,0,1-.4-.57,17.64,17.64,0,0,1-1-1.64,30.07,30.07,0,0,1-3.35-12,18.87,18.87,0,0,1,0-1.9A3,3,0,0,1,268.56,372.55Z" fill="#fafafa"/><path d="M273.31,378.72a13.39,13.39,0,0,0-1.63,3.47,12.84,12.84,0,0,0-.26,3.82,6.41,6.41,0,0,1-.05-3.9A6.49,6.49,0,0,1,273.31,378.72Z" fill="#fafafa"/><path d="M271.59,374.88c.08,0-.63,1.37-1.13,3.15s-.59,3.29-.69,3.29a8.53,8.53,0,0,1,.39-3.37A7.92,7.92,0,0,1,271.59,374.88Z" fill="#fafafa"/><path d="M266.79,379.92a8,8,0,0,1,2.19,1.79,7.52,7.52,0,0,1,1.65,2.29c-.07.05-.82-1-1.88-2.07S266.73,380,266.79,379.92Z" fill="#fafafa"/><path d="M266,375a9.62,9.62,0,0,1,2.27,2.77,9.14,9.14,0,0,1,1.35,3.31c-.09,0-.62-1.48-1.62-3.15S265.89,375,266,375Z" fill="#fafafa"/><path d="M267.28,380.26a2.67,2.67,0,0,0-.84-1.41c-.14-.12-.35-.23-.51-.13a.35.35,0,0,0-.09.42,1,1,0,0,0,.32.34,3.14,3.14,0,0,0-.75,0c-.12,0-.26.07-.26.18s.12.17.22.21l.73.24a.93.93,0,0,1-.41.05c-.13,0-.3.12-.26.25s.17.13.29.13a3.67,3.67,0,0,0,1.46-.3" fill="#fafafa"/><path d="M271.31,375.19c-.1,0-.17.11-.13.2a.25.25,0,0,0,.24.11.6.6,0,0,0,.26-.11,4.12,4.12,0,0,0,1.23-1.08c.06-.1.13-.22.08-.33a.32.32,0,0,0-.35-.12,1.35,1.35,0,0,0-1,.66,1.94,1.94,0,0,0,.47-.91c0-.13,0-.3-.1-.35s-.22.05-.3.15a2.59,2.59,0,0,0-.5.94,1.14,1.14,0,0,0-.12-1,.28.28,0,0,0-.24-.16.21.21,0,0,0-.19.17.57.57,0,0,0,0,.26,6,6,0,0,0,.6,1.85" fill="#fafafa"/><path d="M268.6,372.55a.18.18,0,0,0,0,.29.3.3,0,0,0,.34,0,.7.7,0,0,0,.23-.25,4.89,4.89,0,0,0,.77-1.82c0-.14,0-.32-.09-.41a.41.41,0,0,0-.45,0,1.59,1.59,0,0,0-.75,1.24,2.44,2.44,0,0,0,0-1.26c0-.16-.14-.35-.3-.34s-.22.17-.26.31a3.4,3.4,0,0,0,0,1.31,1.47,1.47,0,0,0-.7-1.1.38.38,0,0,0-.35-.07.27.27,0,0,0-.12.29.83.83,0,0,0,.14.3,7.43,7.43,0,0,0,1.66,1.79" fill="#fafafa"/><path d="M252.45,374.22s-.64.76-1.63,2A34.94,34.94,0,0,0,245,387.1c-.49,1.52-.72,2.48-.77,2.47a2.67,2.67,0,0,1,.1-.69c.08-.44.23-1.07.45-1.84a30.13,30.13,0,0,1,2.38-5.79,29.72,29.72,0,0,1,3.52-5.17c.52-.61,1-1.09,1.28-1.4S252.43,374.2,252.45,374.22Z" fill="#fafafa"/><path d="M251.6,382a13.24,13.24,0,0,0-3.59,1.36,12.94,12.94,0,0,0-2.83,2.59,6.39,6.39,0,0,1,2.67-2.86A6.46,6.46,0,0,1,251.6,382Z" fill="#fafafa"/><path d="M253,378c0,.1-1.41.56-3,1.5s-2.71,2-2.77,1.89a8.2,8.2,0,0,1,2.61-2.16A8.34,8.34,0,0,1,253,378Z" fill="#fafafa"/><path d="M246.06,378.3a11,11,0,0,1-.05,5.61c-.09,0,.07-1.26.08-2.8S246,378.32,246.06,378.3Z" fill="#fafafa"/><path d="M248.9,374.16a9.21,9.21,0,0,1-.28,3.56A9.09,9.09,0,0,1,247.3,381c-.09,0,.58-1.49,1-3.39S248.81,374.15,248.9,374.16Z" fill="#fafafa"/><path d="M252.6,378c-.06-.07-.19,0-.23.06a.25.25,0,0,0,.09.25.68.68,0,0,0,.27.1,4.08,4.08,0,0,0,1.63.07.35.35,0,0,0,.29-.18c0-.13-.06-.25-.16-.33a1.37,1.37,0,0,0-1.19-.21,1.93,1.93,0,0,0,1-.34c.11-.07.22-.2.16-.32s-.19-.11-.31-.1a2.62,2.62,0,0,0-1,.34,1.16,1.16,0,0,0,.63-.84.31.31,0,0,0-.06-.28.24.24,0,0,0-.26,0,.81.81,0,0,0-.18.19,5.68,5.68,0,0,0-.85,1.75" fill="#fafafa"/><path d="M252.48,374.25c-.11-.06-.24.06-.23.18a.3.3,0,0,0,.23.24.83.83,0,0,0,.35,0,4.79,4.79,0,0,0,1.81-.78.41.41,0,0,0,.22-.35.38.38,0,0,0-.34-.29,1.59,1.59,0,0,0-1.41.37,2.4,2.4,0,0,0,.9-.89c.08-.14.14-.35,0-.45s-.28,0-.4,0a3.29,3.29,0,0,0-.94.92,1.46,1.46,0,0,0,.26-1.28c0-.12-.09-.26-.21-.29a.27.27,0,0,0-.28.12.87.87,0,0,0-.11.32,7.62,7.62,0,0,0,0,2.43" fill="#fafafa"/><path d="M271.71,306.16s-.64.76-1.63,2a34.64,34.64,0,0,0-5.85,10.88c-.49,1.51-.72,2.47-.77,2.46a2.72,2.72,0,0,1,.1-.69c.08-.44.24-1.07.46-1.84a30,30,0,0,1,2.37-5.79,30.51,30.51,0,0,1,3.52-5.17c.52-.6,1-1.08,1.28-1.39A3.41,3.41,0,0,1,271.71,306.16Z" fill="#fafafa"/><path d="M270.86,313.91a13.12,13.12,0,0,0-3.58,1.36,13.25,13.25,0,0,0-2.84,2.58,6.45,6.45,0,0,1,2.67-2.85A6.38,6.38,0,0,1,270.86,313.91Z" fill="#fafafa"/><path d="M272.28,309.94c0,.09-1.41.56-3,1.5s-2.7,2-2.77,1.88a10.54,10.54,0,0,1,5.77-3.38Z" fill="#fafafa"/><path d="M265.32,310.25a7.73,7.73,0,0,1,.35,2.8,7.53,7.53,0,0,1-.4,2.8c-.09,0,.07-1.26.08-2.8S265.23,310.26,265.32,310.25Z" fill="#fafafa"/><path d="M268.16,306.1a11.76,11.76,0,0,1-1.6,6.89c-.09,0,.58-1.49,1-3.4S268.07,306.1,268.16,306.1Z" fill="#fafafa"/><path d="M271.87,310c-.06-.08-.2,0-.24,0a.25.25,0,0,0,.1.26.59.59,0,0,0,.26.1,4.28,4.28,0,0,0,1.63.07c.12,0,.25-.07.29-.19s-.06-.24-.16-.32a1.37,1.37,0,0,0-1.19-.22,2,2,0,0,0,1-.33c.11-.07.22-.2.17-.32s-.2-.12-.32-.1a2.66,2.66,0,0,0-1,.33,1.14,1.14,0,0,0,.63-.83.28.28,0,0,0-.06-.28.21.21,0,0,0-.25,0,.58.58,0,0,0-.19.19,5.74,5.74,0,0,0-.85,1.74" fill="#fafafa"/><path d="M271.74,306.19c-.11-.05-.23.07-.23.19a.3.3,0,0,0,.23.24.83.83,0,0,0,.35,0,4.89,4.89,0,0,0,1.82-.77.47.47,0,0,0,.22-.36c0-.16-.2-.25-.35-.29a1.59,1.59,0,0,0-1.41.38,2.36,2.36,0,0,0,.9-.9c.09-.14.14-.34,0-.45s-.27,0-.4.05a3.26,3.26,0,0,0-.93.92,1.51,1.51,0,0,0,.25-1.29.39.39,0,0,0-.2-.29.27.27,0,0,0-.29.13.82.82,0,0,0-.11.31,7.68,7.68,0,0,0,0,2.44" fill="#fafafa"/><path d="M212.29,400.47c.06,0,.07,1,.22,2.57a34.73,34.73,0,0,0,1.12,6.1,36.26,36.26,0,0,0,2.2,5.8c.69,1.43,1.2,2.28,1.15,2.31a2.93,2.93,0,0,1-.4-.56c-.25-.38-.57-.94-1-1.65a30.07,30.07,0,0,1-3.35-12,18.87,18.87,0,0,1,0-1.9A3,3,0,0,1,212.29,400.47Z" fill="#fafafa"/><path d="M217,406.64a13.39,13.39,0,0,0-1.63,3.47,12.84,12.84,0,0,0-.26,3.82,6.41,6.41,0,0,1-.05-3.9A6.49,6.49,0,0,1,217,406.64Z" fill="#fafafa"/><path d="M215.32,402.8c.08,0-.63,1.38-1.13,3.16s-.59,3.28-.68,3.28a8.19,8.19,0,0,1,.38-3.37A7.92,7.92,0,0,1,215.32,402.8Z" fill="#fafafa"/><path d="M210.52,407.84a8,8,0,0,1,2.19,1.79,7.52,7.52,0,0,1,1.65,2.29c-.07.05-.82-1-1.88-2.07S210.46,407.92,210.52,407.84Z" fill="#fafafa"/><path d="M209.69,402.89a9.31,9.31,0,0,1,2.27,2.76,9.14,9.14,0,0,1,1.35,3.31c-.09,0-.62-1.48-1.62-3.15S209.62,403,209.69,402.89Z" fill="#fafafa"/><path d="M211,408.18a2.67,2.67,0,0,0-.84-1.41c-.14-.12-.35-.23-.51-.13a.35.35,0,0,0-.09.42,1.15,1.15,0,0,0,.32.34,3.14,3.14,0,0,0-.75,0c-.11,0-.26.07-.26.18s.12.17.22.21l.73.24a.91.91,0,0,1-.41.05c-.13,0-.3.12-.26.25s.18.13.29.13a3.75,3.75,0,0,0,1.47-.3" fill="#fafafa"/><path d="M215,403.11c-.1,0-.17.11-.13.2a.23.23,0,0,0,.24.11.7.7,0,0,0,.27-.11,4.2,4.2,0,0,0,1.22-1.08.34.34,0,0,0,.08-.33.32.32,0,0,0-.35-.12,1.37,1.37,0,0,0-1,.66,1.85,1.85,0,0,0,.47-.91c0-.13,0-.3-.1-.35s-.22.06-.3.15a2.75,2.75,0,0,0-.5.94,1.14,1.14,0,0,0-.12-1,.28.28,0,0,0-.24-.16.22.22,0,0,0-.19.17.46.46,0,0,0,0,.26,5.72,5.72,0,0,0,.59,1.85" fill="#fafafa"/><path d="M212.33,400.47a.18.18,0,0,0,0,.29.29.29,0,0,0,.33,0,.62.62,0,0,0,.23-.25,4.73,4.73,0,0,0,.77-1.82.41.41,0,0,0-.09-.41.4.4,0,0,0-.44,0,1.58,1.58,0,0,0-.76,1.25,2.48,2.48,0,0,0,0-1.27c0-.16-.14-.35-.3-.34s-.22.17-.25.31a3.22,3.22,0,0,0,0,1.31,1.47,1.47,0,0,0-.7-1.1.35.35,0,0,0-.35-.06.26.26,0,0,0-.12.28.83.83,0,0,0,.14.3,7.64,7.64,0,0,0,1.66,1.79" fill="#fafafa"/><path d="M286.46,408.3c.05,0,.06,1,.21,2.57a34.63,34.63,0,0,0,3.33,11.9c.69,1.43,1.2,2.28,1.15,2.31a3.09,3.09,0,0,1-.41-.57c-.24-.37-.57-.93-.94-1.64a29.76,29.76,0,0,1-3.35-12,18.87,18.87,0,0,1,0-1.9A2.88,2.88,0,0,1,286.46,408.3Z" fill="#fafafa"/><path d="M291.21,414.47a13.6,13.6,0,0,0-1.64,3.47,13,13,0,0,0-.25,3.82,7.42,7.42,0,0,1,1.89-7.29Z" fill="#fafafa"/><path d="M289.48,410.62c.09.05-.63,1.38-1.12,3.16s-.59,3.29-.69,3.28a8.16,8.16,0,0,1,.38-3.36A8.48,8.48,0,0,1,289.48,410.62Z" fill="#fafafa"/><path d="M284.68,415.67a7.63,7.63,0,0,1,2.2,1.78,7.49,7.49,0,0,1,1.65,2.3c-.08.05-.82-1-1.88-2.08S284.63,415.75,284.68,415.67Z" fill="#fafafa"/><path d="M283.86,410.71a9.48,9.48,0,0,1,2.27,2.76,9.69,9.69,0,0,1,1.35,3.32c-.1,0-.62-1.48-1.63-3.15S283.79,410.78,283.86,410.71Z" fill="#fafafa"/><path d="M285.17,416a2.56,2.56,0,0,0-.83-1.41c-.14-.12-.35-.24-.51-.13a.32.32,0,0,0-.09.42.94.94,0,0,0,.32.34,2.36,2.36,0,0,0-.75,0c-.12,0-.26.06-.26.18s.11.17.22.21l.73.23a.81.81,0,0,1-.41.06c-.14,0-.3.11-.26.25s.17.12.28.13a3.68,3.68,0,0,0,1.47-.3" fill="#fafafa"/><path d="M289.21,410.93a.15.15,0,0,0-.13.2.23.23,0,0,0,.24.12.6.6,0,0,0,.26-.11,4,4,0,0,0,1.22-1.08c.07-.1.14-.22.08-.33s-.21-.14-.34-.12a1.32,1.32,0,0,0-1,.66,1.93,1.93,0,0,0,.47-.92c0-.12,0-.29-.1-.34s-.23.05-.3.14a2.71,2.71,0,0,0-.5,1,1.13,1.13,0,0,0-.13-1,.3.3,0,0,0-.23-.16.24.24,0,0,0-.19.17.62.62,0,0,0,0,.27,5.82,5.82,0,0,0,.6,1.85" fill="#fafafa"/><path d="M286.5,408.3c-.12,0-.13.21,0,.29a.29.29,0,0,0,.33,0,.82.82,0,0,0,.24-.25,5.06,5.06,0,0,0,.77-1.82c0-.15,0-.32-.09-.41a.39.39,0,0,0-.45,0,1.57,1.57,0,0,0-.75,1.24,2.44,2.44,0,0,0,0-1.26c0-.16-.14-.35-.3-.34s-.22.17-.26.31a3.39,3.39,0,0,0,0,1.31,1.47,1.47,0,0,0-.7-1.1.38.38,0,0,0-.35-.07.27.27,0,0,0-.12.29.83.83,0,0,0,.14.3,7.21,7.21,0,0,0,1.66,1.78" fill="#fafafa"/><path d="M305.84,347.12c0,.06-.92.39-2.36,1.05a34.84,34.84,0,0,0-10.14,7.06c-1.13,1.13-1.76,1.88-1.81,1.85a3,3,0,0,1,.41-.57c.27-.36.69-.85,1.24-1.44a29.73,29.73,0,0,1,10.21-7.1c.74-.31,1.35-.53,1.77-.67A3.42,3.42,0,0,1,305.84,347.12Z" fill="#fafafa"/><path d="M301.57,353.64a10.32,10.32,0,0,0-7.51.62,7.39,7.39,0,0,1,7.51-.62Z" fill="#fafafa"/><path d="M304.64,350.75c0,.09-1.51-.14-3.36,0s-3.3.52-3.32.43a8.07,8.07,0,0,1,3.3-.75A8.26,8.26,0,0,1,304.64,350.75Z" fill="#fafafa"/><path d="M298.29,347.88a10.81,10.81,0,0,1-2.58,5c-.08-.05.63-1.09,1.34-2.46S298.2,347.85,298.29,347.88Z" fill="#fafafa"/><path d="M302.7,345.46a11.86,11.86,0,0,1-4.54,5.42c-.06-.08,1.19-1.07,2.43-2.57S302.61,345.42,302.7,345.46Z" fill="#fafafa"/><path d="M298.13,348.45a2.64,2.64,0,0,0,1.06-1.25c.07-.18.11-.41,0-.53a.34.34,0,0,0-.43.06,1,1,0,0,0-.22.41,2.5,2.5,0,0,0-.25-.71c-.05-.1-.14-.22-.25-.19s-.13.17-.13.28c0,.26,0,.51,0,.77-.11-.08-.13-.24-.18-.37s-.21-.24-.32-.16-.07.2,0,.31a3.67,3.67,0,0,0,.76,1.29" fill="#fafafa"/><path d="M304.25,350.59a.14.14,0,0,0-.23-.06.24.24,0,0,0,0,.27.64.64,0,0,0,.19.21,4.26,4.26,0,0,0,1.42.8c.12,0,.26.05.34,0a.32.32,0,0,0,0-.36,1.36,1.36,0,0,0-.95-.73,2,2,0,0,0,1,.15c.13,0,.29-.08.29-.21s-.12-.2-.23-.24a2.74,2.74,0,0,0-1.06-.16,1.13,1.13,0,0,0,.93-.46.32.32,0,0,0,.08-.28.26.26,0,0,0-.23-.12.48.48,0,0,0-.25.09,5.51,5.51,0,0,0-1.55,1.17" fill="#fafafa"/><path d="M305.85,347.16a.18.18,0,0,0-.29.06.3.3,0,0,0,.1.32.71.71,0,0,0,.32.14,5,5,0,0,0,2,.13c.14,0,.31-.08.36-.22a.41.41,0,0,0-.18-.41,1.56,1.56,0,0,0-1.42-.31,2.28,2.28,0,0,0,1.2-.39c.14-.09.28-.24.22-.39s-.23-.15-.37-.14a3.31,3.31,0,0,0-1.26.39,1.49,1.49,0,0,0,.82-1,.41.41,0,0,0-.06-.36.27.27,0,0,0-.31,0,.75.75,0,0,0-.24.23,7.66,7.66,0,0,0-1.14,2.15" fill="#fafafa"/><path d="M210.37,372c.06,0-.14,1-.34,2.56a36.36,36.36,0,0,0-.21,6.19,35.57,35.57,0,0,0,.91,6.14c.37,1.55.68,2.49.62,2.51a4,4,0,0,1-.27-.65c-.16-.41-.36-1-.57-1.8a30.15,30.15,0,0,1-1-6.18,29.29,29.29,0,0,1,.3-6.24c.12-.8.25-1.43.36-1.87A2.93,2.93,0,0,1,210.37,372Z" fill="#fafafa"/><path d="M213.69,379.08a13.12,13.12,0,0,0-2.34,3,12.88,12.88,0,0,0-1.07,3.68,7.44,7.44,0,0,1,3.41-6.72Z" fill="#fafafa"/><path d="M212.83,375c.07.06-.91,1.21-1.78,2.84s-1.28,3.09-1.37,3.06a10.44,10.44,0,0,1,3.15-5.9Z" fill="#fafafa"/><path d="M207.06,378.86a10.71,10.71,0,0,1,2.88,4.8c-.08,0-.6-1.11-1.39-2.42S207,378.92,207.06,378.86Z" fill="#fafafa"/><path d="M207.32,373.84a12,12,0,0,1,2.23,6.71c-.1,0-.29-1.58-.91-3.43S207.23,373.89,207.32,373.84Z" fill="#fafafa"/><path d="M207.46,379.3a2.52,2.52,0,0,0-.51-1.56c-.11-.15-.29-.31-.47-.24a.34.34,0,0,0-.18.39,1.1,1.1,0,0,0,.24.4,2.58,2.58,0,0,0-.73-.16c-.12,0-.26,0-.29.12s.07.19.17.25.44.27.66.39a.83.83,0,0,1-.41,0c-.14,0-.32,0-.31.18s.14.16.25.19a3.79,3.79,0,0,0,1.5,0" fill="#fafafa"/><path d="M212.49,375.2c-.09,0-.18.08-.17.17a.25.25,0,0,0,.22.17.57.57,0,0,0,.28-.06,4.05,4.05,0,0,0,1.42-.79.34.34,0,0,0,.15-.31c0-.12-.18-.17-.31-.19a1.36,1.36,0,0,0-1.12.44,2.06,2.06,0,0,0,.66-.8c0-.12.08-.28,0-.36s-.23,0-.32.08a2.6,2.6,0,0,0-.69.82,1.2,1.2,0,0,0,.1-1,.3.3,0,0,0-.2-.21.23.23,0,0,0-.22.13.46.46,0,0,0-.06.26,5.73,5.73,0,0,0,.18,1.93" fill="#fafafa"/><path d="M210.41,372.05c-.12,0-.16.17-.09.27a.3.3,0,0,0,.32.09.8.8,0,0,0,.28-.2,4.78,4.78,0,0,0,1.14-1.61.4.4,0,0,0,0-.42.39.39,0,0,0-.44-.07,1.6,1.6,0,0,0-1,1.05,2.35,2.35,0,0,0,.31-1.23c0-.16-.06-.36-.22-.39s-.25.12-.32.25a3.26,3.26,0,0,0-.32,1.27,1.5,1.5,0,0,0-.45-1.23.37.37,0,0,0-.33-.14.27.27,0,0,0-.18.26.89.89,0,0,0,.08.32,7.52,7.52,0,0,0,1.23,2.1" fill="#fafafa"/><path d="M313,418.33c.06,0,.21,1,.58,2.52a34.52,34.52,0,0,0,5,11.31c.89,1.31,1.51,2.09,1.47,2.12a3.09,3.09,0,0,1-.48-.5c-.3-.34-.7-.85-1.17-1.5a29.28,29.28,0,0,1-3.11-5.43,30.5,30.5,0,0,1-1.91-6c-.16-.79-.26-1.43-.31-1.87A3.32,3.32,0,0,1,313,418.33Z" fill="#fafafa"/><path d="M318.54,423.77a13.38,13.38,0,0,0-1.12,3.66,13,13,0,0,0,.29,3.83,7.4,7.4,0,0,1,.83-7.49Z" fill="#fafafa"/><path d="M316.29,420.21c.09,0-.43,1.45-.66,3.28s-.12,3.34-.22,3.35a10.53,10.53,0,0,1,.88-6.63Z" fill="#fafafa"/><path d="M312.25,425.89a10.7,10.7,0,0,1,4.39,3.48c-.07.06-.95-.83-2.16-1.78S312.21,426,312.25,425.89Z" fill="#fafafa"/><path d="M310.73,421.09a12.07,12.07,0,0,1,4.45,5.5c-.09.05-.82-1.37-2.06-2.88S310.67,421.17,310.73,421.09Z" fill="#fafafa"/><path d="M312.79,426.15a2.59,2.59,0,0,0-1-1.28c-.16-.1-.38-.18-.52-.06a.33.33,0,0,0,0,.43.86.86,0,0,0,.36.29,3.08,3.08,0,0,0-.74.11c-.11,0-.24.1-.23.22s.14.15.24.17c.26.05.51.1.76.13-.1.1-.26.09-.39.11s-.29.16-.22.29.18.1.29.09a3.52,3.52,0,0,0,1.41-.51" fill="#fafafa"/><path d="M316.06,420.55c-.1,0-.15.14-.1.22a.23.23,0,0,0,.26.08.61.61,0,0,0,.24-.15,4.07,4.07,0,0,0,1.06-1.24.38.38,0,0,0,0-.34c-.07-.11-.23-.1-.36-.07a1.36,1.36,0,0,0-.9.8,1.92,1.92,0,0,0,.34-1c0-.14,0-.3-.15-.33s-.21.08-.27.18a2.66,2.66,0,0,0-.36,1,1.17,1.17,0,0,0-.28-1,.3.3,0,0,0-.26-.12.23.23,0,0,0-.16.19.63.63,0,0,0,0,.27,5.63,5.63,0,0,0,.85,1.74" fill="#fafafa"/><path d="M313,418.33a.18.18,0,0,0,0,.29.29.29,0,0,0,.33,0,.81.81,0,0,0,.19-.29,4.72,4.72,0,0,0,.51-1.91.43.43,0,0,0-.15-.39c-.14-.09-.31,0-.44.09a1.59,1.59,0,0,0-.57,1.34,2.27,2.27,0,0,0-.15-1.26c-.06-.15-.18-.32-.34-.29s-.2.2-.21.34a3.23,3.23,0,0,0,.15,1.31,1.53,1.53,0,0,0-.86-1,.39.39,0,0,0-.35,0,.28.28,0,0,0-.08.3.75.75,0,0,0,.18.28,7.39,7.39,0,0,0,1.9,1.53" fill="#fafafa"/><path d="M297.31,391.22c-.06,0,.24-1,.59-2.52a35.81,35.81,0,0,0,.83-6.14,35.44,35.44,0,0,0-.29-6.2c-.21-1.57-.42-2.54-.37-2.55a3.21,3.21,0,0,1,.21.66c.11.43.25,1.07.39,1.86a30.62,30.62,0,0,1,.38,6.24,30.12,30.12,0,0,1-.93,6.19,18.45,18.45,0,0,1-.55,1.81A3.62,3.62,0,0,1,297.31,391.22Z" fill="#fafafa"/><path d="M294.71,383.87a12.91,12.91,0,0,0,2.63-2.78,13.32,13.32,0,0,0,1.44-3.56,6.48,6.48,0,0,1-1.17,3.73A6.36,6.36,0,0,1,294.71,383.87Z" fill="#fafafa"/><path d="M295.15,388.06c-.06-.07,1-1.11,2.05-2.65s1.59-2.94,1.68-2.9a8.18,8.18,0,0,1-1.41,3.08A8,8,0,0,1,295.15,388.06Z" fill="#fafafa"/><path d="M301.29,384.76a7.35,7.35,0,0,1-1.53-2.38,7.47,7.47,0,0,1-.86-2.69c.09,0,.48,1.17,1.14,2.56S301.36,384.71,301.29,384.76Z" fill="#fafafa"/><path d="M300.53,389.73a9.17,9.17,0,0,1-1.3-3.33,9.34,9.34,0,0,1-.25-3.57c.1,0,.13,1.6.56,3.5S300.62,389.69,300.53,389.73Z" fill="#fafafa"/><path d="M300.93,384.28a2.59,2.59,0,0,0,.35,1.61c.1.16.26.33.45.28a.32.32,0,0,0,.21-.37,1,1,0,0,0-.2-.42,3,3,0,0,0,.72.23c.11,0,.26,0,.3-.09s-.06-.2-.14-.27l-.62-.45c.13,0,.26,0,.4.08s.32,0,.32-.16-.12-.18-.23-.21a3.7,3.7,0,0,0-1.48-.18" fill="#fafafa"/><path d="M295.51,387.86a.15.15,0,0,0,.19-.15.23.23,0,0,0-.19-.19.7.7,0,0,0-.29,0,4.28,4.28,0,0,0-1.5.65.37.37,0,0,0-.18.29c0,.13.17.2.29.22a1.35,1.35,0,0,0,1.16-.32,1.9,1.9,0,0,0-.73.73c-.07.11-.11.27,0,.36s.23,0,.33-.05a2.85,2.85,0,0,0,.77-.74,1.13,1.13,0,0,0-.21,1,.31.31,0,0,0,.18.23.23.23,0,0,0,.23-.1.62.62,0,0,0,.09-.26,5.74,5.74,0,0,0,0-1.94" fill="#fafafa"/><path d="M297.27,391.2c.12,0,.18-.16.12-.26a.29.29,0,0,0-.31-.12.9.9,0,0,0-.3.17,5,5,0,0,0-1.3,1.49.43.43,0,0,0,0,.42.4.4,0,0,0,.43.11,1.59,1.59,0,0,0,1.11-.95,2.31,2.31,0,0,0-.42,1.19c0,.17,0,.38.18.42s.26-.09.33-.22a3.15,3.15,0,0,0,.45-1.23,1.51,1.51,0,0,0,.33,1.27c.08.09.19.19.31.17a.28.28,0,0,0,.2-.24.75.75,0,0,0,0-.33,7.39,7.39,0,0,0-1-2.21" fill="#fafafa"/><path d="M252.33,333.41s-.92.39-2.36,1a34.84,34.84,0,0,0-10.14,7.06c-1.13,1.13-1.77,1.88-1.81,1.85a3,3,0,0,1,.41-.57c.27-.36.69-.85,1.23-1.44a30.91,30.91,0,0,1,4.74-4.09,30.18,30.18,0,0,1,5.48-3c.74-.31,1.34-.54,1.77-.67A3.42,3.42,0,0,1,252.33,333.41Z" fill="#fafafa"/><path d="M248.06,339.93a10.32,10.32,0,0,0-7.51.62,6.45,6.45,0,0,1,3.67-1.34A6.52,6.52,0,0,1,248.06,339.93Z" fill="#fafafa"/><path d="M251.13,337c0,.09-1.51-.14-3.36,0s-3.3.52-3.32.43a8.07,8.07,0,0,1,3.3-.75A8.26,8.26,0,0,1,251.13,337Z" fill="#fafafa"/><path d="M244.78,334.17a10.81,10.81,0,0,1-2.58,5c-.08-.05.63-1.09,1.33-2.46S244.69,334.14,244.78,334.17Z" fill="#fafafa"/><path d="M249.19,331.75a9.54,9.54,0,0,1-1.86,3.06,9.13,9.13,0,0,1-2.69,2.36c-.06-.08,1.19-1.07,2.44-2.57S249.1,331.71,249.19,331.75Z" fill="#fafafa"/><path d="M244.62,334.74a2.64,2.64,0,0,0,1.06-1.25c.07-.18.1-.41,0-.53a.35.35,0,0,0-.43.05,1.06,1.06,0,0,0-.22.42,2.5,2.5,0,0,0-.25-.71c-.05-.1-.14-.22-.25-.19s-.13.17-.13.28,0,.51,0,.77c-.11-.08-.13-.24-.18-.37s-.21-.25-.32-.16-.07.2,0,.31a3.67,3.67,0,0,0,.76,1.29" fill="#fafafa"/><path d="M250.74,336.88a.14.14,0,0,0-.23-.06.24.24,0,0,0,0,.27.76.76,0,0,0,.19.21,4.26,4.26,0,0,0,1.42.8c.12,0,.26,0,.34,0a.32.32,0,0,0,0-.36,1.35,1.35,0,0,0-1-.73,2,2,0,0,0,1,.15c.13,0,.28-.08.29-.21s-.12-.2-.24-.24a2.69,2.69,0,0,0-1.05-.16,1.13,1.13,0,0,0,.93-.46.32.32,0,0,0,.08-.28.26.26,0,0,0-.23-.12.57.57,0,0,0-.25.08,5.91,5.91,0,0,0-1.55,1.17" fill="#fafafa"/><path d="M252.34,333.45a.18.18,0,0,0-.29.06.3.3,0,0,0,.1.32.71.71,0,0,0,.32.14,5,5,0,0,0,2,.13.46.46,0,0,0,.36-.22.41.41,0,0,0-.18-.41,1.56,1.56,0,0,0-1.42-.31,2.28,2.28,0,0,0,1.2-.39c.14-.09.28-.24.22-.39s-.23-.15-.37-.14a3.31,3.31,0,0,0-1.26.39,1.49,1.49,0,0,0,.82-1,.41.41,0,0,0-.06-.36.29.29,0,0,0-.31,0,.91.91,0,0,0-.24.24,7.66,7.66,0,0,0-1.14,2.15" fill="#fafafa"/><path d="M290.26,313c.05,0,.49.87,1.3,2.23a35.5,35.5,0,0,0,3.66,5,34.71,34.71,0,0,0,4.49,4.28c1.24,1,2.06,1.54,2,1.59a2.67,2.67,0,0,1-.61-.34c-.38-.23-.92-.59-1.56-1.07a30.18,30.18,0,0,1-4.59-4.25,29.58,29.58,0,0,1-3.61-5.11c-.39-.7-.68-1.28-.86-1.69A2.9,2.9,0,0,1,290.26,313Z" fill="#fafafa"/><path d="M297.21,316.47a10.25,10.25,0,0,0,1.45,7.4,7.39,7.39,0,0,1-1.45-7.4Z" fill="#fafafa"/><path d="M294,313.75c.1,0,0,1.52.36,3.34s.88,3.22.79,3.25a8.4,8.4,0,0,1-1.11-3.2A8.49,8.49,0,0,1,294,313.75Z" fill="#fafafa"/><path d="M291.85,320.38a7.57,7.57,0,0,1,2.74.66,7.75,7.75,0,0,1,2.49,1.35c-.05.08-1.16-.5-2.6-1.05S291.83,320.47,291.85,320.38Z" fill="#fafafa"/><path d="M289,316.26a9.59,9.59,0,0,1,3.24,1.52,9.47,9.47,0,0,1,2.65,2.4c-.07.07-1.2-1.06-2.83-2.14S288.92,316.35,289,316.26Z" fill="#fafafa"/><path d="M292.44,320.47a2.63,2.63,0,0,0-1.37-.91c-.18-.05-.42-.06-.52.1a.35.35,0,0,0,.1.42,1,1,0,0,0,.44.17,2.85,2.85,0,0,0-.68.33c-.09.06-.2.16-.15.27s.18.11.28.09c.26,0,.51-.06.77-.1-.07.12-.23.16-.35.22s-.22.24-.12.34.21,0,.31,0a3.9,3.9,0,0,0,1.19-.9" fill="#fafafa"/><path d="M293.88,314.15a.15.15,0,0,0,0,.24.24.24,0,0,0,.27,0,.61.61,0,0,0,.18-.21,4.1,4.1,0,0,0,.64-1.51.35.35,0,0,0-.07-.33c-.1-.08-.25,0-.36,0a1.34,1.34,0,0,0-.62,1,2,2,0,0,0,0-1c0-.13-.11-.28-.24-.27s-.18.15-.21.26a2.76,2.76,0,0,0,0,1.07,1.15,1.15,0,0,0-.56-.88.31.31,0,0,0-.29,0,.22.22,0,0,0-.09.24.58.58,0,0,0,.11.24,5.75,5.75,0,0,0,1.33,1.41" fill="#fafafa"/><path d="M290.29,313a.17.17,0,0,0,.1.27.26.26,0,0,0,.3-.13.61.61,0,0,0,.1-.33,4.68,4.68,0,0,0-.09-2c0-.14-.11-.3-.25-.33a.39.39,0,0,0-.39.22,1.58,1.58,0,0,0-.15,1.45,2.31,2.31,0,0,0-.52-1.16c-.1-.12-.27-.25-.41-.17s-.13.25-.1.39a3.3,3.3,0,0,0,.53,1.2,1.52,1.52,0,0,0-1.11-.7.39.39,0,0,0-.35.1.29.29,0,0,0,0,.31.78.78,0,0,0,.26.21,7.41,7.41,0,0,0,2.27.89" fill="#fafafa"/><path d="M221.44,320.57c.05,0,.49.86,1.31,2.23a36.75,36.75,0,0,0,3.65,5,36.1,36.1,0,0,0,4.49,4.28c1.25,1,2.07,1.54,2,1.59a4.29,4.29,0,0,1-.61-.34c-.39-.23-.92-.6-1.57-1.07a30.66,30.66,0,0,1-4.59-4.25,30.23,30.23,0,0,1-3.6-5.11c-.39-.7-.68-1.28-.86-1.69A3.41,3.41,0,0,1,221.44,320.57Z" fill="#fafafa"/><path d="M228.4,324.08a12.88,12.88,0,0,0,0,3.83,13.26,13.26,0,0,0,1.42,3.57,6.47,6.47,0,0,1-1.73-3.5A6.4,6.4,0,0,1,228.4,324.08Z" fill="#fafafa"/><path d="M225.18,321.36c.1,0,0,1.52.35,3.33s.89,3.22.8,3.26a10.57,10.57,0,0,1-1.15-6.59Z" fill="#fafafa"/><path d="M223,328a7.6,7.6,0,0,1,2.75.66,7.49,7.49,0,0,1,2.48,1.35c0,.08-1.16-.51-2.59-1.06S223,328.08,223,328Z" fill="#fafafa"/><path d="M220.14,323.87a11.9,11.9,0,0,1,5.89,3.92c-.07.06-1.19-1.07-2.82-2.14S220.11,324,220.14,323.87Z" fill="#fafafa"/><path d="M223.62,328.08a2.6,2.6,0,0,0-1.36-.91c-.18-.05-.42-.06-.52.1a.33.33,0,0,0,.1.42,1.08,1.08,0,0,0,.43.17,2.75,2.75,0,0,0-.67.32c-.1.06-.2.17-.16.28s.18.1.29.09l.76-.1c-.07.12-.22.15-.34.22s-.22.24-.13.34.21,0,.31,0a3.54,3.54,0,0,0,1.2-.9" fill="#fafafa"/><path d="M225.06,321.76a.14.14,0,0,0,0,.23.23.23,0,0,0,.27,0,.67.67,0,0,0,.19-.22,4.14,4.14,0,0,0,.63-1.5c0-.12,0-.26-.07-.33s-.25,0-.36,0a1.35,1.35,0,0,0-.62,1,1.81,1.81,0,0,0,0-1c0-.13-.11-.28-.24-.27s-.18.15-.2.26a2.58,2.58,0,0,0,0,1.07,1.16,1.16,0,0,0-.57-.88.28.28,0,0,0-.28,0,.22.22,0,0,0-.1.23.62.62,0,0,0,.11.25,5.94,5.94,0,0,0,1.34,1.4" fill="#fafafa"/><path d="M221.48,320.56c-.09.07,0,.24.09.27a.3.3,0,0,0,.31-.13,1,1,0,0,0,.1-.33,4.9,4.9,0,0,0-.09-2c0-.13-.11-.29-.26-.33s-.3.09-.39.23a1.56,1.56,0,0,0-.14,1.44,2.46,2.46,0,0,0-.52-1.15c-.11-.13-.28-.25-.42-.18s-.12.25-.09.39a3.16,3.16,0,0,0,.53,1.2,1.53,1.53,0,0,0-1.12-.69.37.37,0,0,0-.34.1.24.24,0,0,0,0,.3.75.75,0,0,0,.25.22,7.67,7.67,0,0,0,2.27.89" fill="#fafafa"/><path d="M266.85,443.28c-7.27-8.7-18.15-15.22-29.46-14.61-8.44.46-19.29,4.47-26.31,8.44-19.89,11.28-16.19,36.94-16.19,36.94l21.62,136,40-5.17-4.39-130.69,22.22-16.94Z" fill="#002c3c"/><path d="M265.28,304.82c3-3,1.25-4.79.13-7.79l-21.49-64.17c-9.32-21-36.71-8.54-36.71-8.54-12.92,4.74-14.75,19.27-11.77,29.19,3.32,11,7.8,24.32,12.05,31.88,8.56,15.2,21.69,12.66,21.69,12.66l5.44,14.65a8.53,8.53,0,0,0,12.75,4.12Z" fill="#f9b499"/><path d="M275.58,299.5l10.49,2.35-.52-3.77s-1.1-16.47-14.29-28.25,4.69-16.35-6.78-31.91c-3.79-5.14-8-9.81-13.43-13.16a20.78,20.78,0,0,1-2.7-2c-2.24-2-4.19-4.29-6.62-6a11.42,11.42,0,0,0-6.25-2.28h0a18.4,18.4,0,0,0-4.2-1.18c-6.44-1-12.82,1.62-18.82,4.15-5.8,2.45-21.4,1.86-16.46,17.81h0c1-2.66,5-4.85,8.15-2.24a9.52,9.52,0,0,1,3.81,6.22c.7,3.71,1.79,7.83,6.29,8.79a8,8,0,0,0,3.34-.05c3.75-.85,6.77-6.53,13.94-5.18,0,0,7,2.17,7.39,6.56s-2,12.54,2.28,16.42,5,3.78,4.91,7.13c0,.76,0,1.3-.08,1.68-.54,5.31.49,31.05,21.65,22.83l7.9,2.14" fill="#002c3c"/><path d="M695.7,550.3c1.59-5.51,5-10.84,10.26-13.11,5.48-2.36,11.82-1,17.43,1s11.11,4.76,17.06,5.13,12.68-2.46,14.46-8.15c1.68-5.35-1.55-11.06-5.59-14.94a35.27,35.27,0,0,0-57.8,13.87" fill="#ff4f5b"/><path d="M695.7,550.3c1.59-5.51,5-10.84,10.26-13.11,5.48-2.36,11.82-1,17.43,1s11.11,4.76,17.06,5.13,12.68-2.46,14.46-8.15c1.68-5.35-1.55-11.06-5.59-14.94a35.27,35.27,0,0,0-57.8,13.87" fill="#bcbec0"/><path d="M648.53,574.21c-8.74-8.3-8.3-22.74-3.94-34s13.86-19.86,24.49-25.54a77.56,77.56,0,0,1,67.59-2.2,32.08,32.08,0,0,0-25.94,15.24c-4.79,8-5.85,17.59-9.81,26a40.92,40.92,0,0,1-52.39,20.48" fill="#d1d3d4"/><path d="M644.33,524.36c-9.67-11.42-11-29.74-9.53-44.63s4.87-29.89,2.52-44.66c-1.39-8.76-4.78-17.11-5.93-25.9s.48-18.73,7.29-24.4c7.82-6.52,20.15-5,28.29,1.14s12.86,15.74,16.31,25.32c7.57,21.06,10.35,44.42,4.13,65.92s-20.82,40.72-42.24,47.21" fill="#d1d3d4"/><path d="M555.46,480.27c-17.9,10.8-17.84,20.63-14.85,29.9s14,15.72,23.07,12.25c5.15-2,8.88-6.44,12.06-10.93s6.18-9.31,10.64-12.54,10.93-4.46,15.41-1.26" fill="#bcbec0"/><path d="M542.88,491.16c4.68-6.46,16.24-8.33,23.53-5.11s12.65,9.62,17.43,16,9.45,13.13,16.07,17.57,15.89,6,22.5,1.58c4.34-2.94,6.85-8.05,7.64-13.23s0-10.48-1-15.6c-1.58-7.51-4.16-15.35-10.17-20.11-6.69-5.32-16-5.57-24.52-5.29-9.8.32-19.74,1.06-28.94,4.45s-18.59,10.74-22.49,19.73" fill="#d1d3d4"/><polygon points="600.62 618.02 611.12 666.53 656.77 666.53 666.6 618.02 600.62 618.02" fill="#d1d3d4"/><path d="M661.2,643.81a34.29,34.29,0,0,0-7.4-4.24,26,26,0,0,0-9-1.81,31.73,31.73,0,0,0-11.06,2c-3.83,1.29-7.41,2.8-10.89,3.63a25.91,25.91,0,0,1-9.41.28,19.21,19.21,0,0,1-6.05-1.91,13.37,13.37,0,0,1-1.46-.93c-.31-.24-.47-.37-.45-.39s.71.41,2,1a21,21,0,0,0,6,1.63,26.3,26.3,0,0,0,9.17-.44c3.36-.84,6.93-2.36,10.79-3.67a31.37,31.37,0,0,1,11.34-2,25.66,25.66,0,0,1,9.19,2,23.59,23.59,0,0,1,5.48,3.2,13.05,13.05,0,0,1,1.3,1.12A2.11,2.11,0,0,1,661.2,643.81Z" fill="#bcbec0"/><path d="M660.56,647.05a36.18,36.18,0,0,0-7.11-4.19,24.16,24.16,0,0,0-8.67-1.79,31.22,31.22,0,0,0-10.7,1.93c-3.71,1.24-7.18,2.67-10.5,3.56a26.77,26.77,0,0,1-9,1,15.27,15.27,0,0,1-5.93-1.59,12.13,12.13,0,0,1-1.41-.89c-.3-.23-.46-.36-.44-.38s.69.4,2,1a16.15,16.15,0,0,0,5.83,1.3,27.51,27.51,0,0,0,8.81-1.16c3.24-.91,6.69-2.36,10.43-3.61a31,31,0,0,1,11-1.9,23.79,23.79,0,0,1,14.13,5.17,16,16,0,0,1,1.25,1.1C660.44,646.88,660.58,647,660.56,647.05Z" fill="#fff"/><path d="M662,640.59a40.37,40.37,0,0,0-7.6-4.48,27.93,27.93,0,0,0-9.22-2.21c-3.58-.26-7.48.66-11.42,2s-7.63,2.93-11.27,3.68a28.47,28.47,0,0,1-9.72,0,21.73,21.73,0,0,1-6.24-2,11.92,11.92,0,0,1-1.52-.94c-.32-.25-.48-.38-.47-.41s.74.44,2.13,1.07a24.19,24.19,0,0,0,6.19,1.7,29.41,29.41,0,0,0,9.49-.19c3.49-.74,7.17-2.37,11.16-3.71s8-2.29,11.71-2a28.11,28.11,0,0,1,15,5.81,16,16,0,0,1,1.35,1.16C661.9,640.41,662.05,640.57,662,640.59Z" fill="#fff"/><path d="M267.69,655.78l-18.88,5.63-5.32-11.54-2.83,13.57-34,8.51a7.88,7.88,0,0,1-7.83-12.85l25-25.82L220.76,621l32.52-7.58Z" fill="#00adef"/><path d="M205.7,672.57l-19.68.88L183.66,661l-6,12.48H142.57a7.88,7.88,0,0,1-4.48-14.37l30.51-19V627.48L202,628Z" fill="#00adef"/><path d="M639.69,618a7.74,7.74,0,0,1,0-1.31c0-.87,0-2.14.07-3.78.13-3.27.44-8,1.18-13.82a182.27,182.27,0,0,1,3.71-20.25,93.31,93.31,0,0,1,9.24-23.44A97.56,97.56,0,0,1,669,535.24a96.22,96.22,0,0,1,15.83-13.17c2.41-1.67,4.75-2.93,6.76-4.11s3.86-2,5.34-2.68l3.48-1.47a7.57,7.57,0,0,1,1.23-.45,8.92,8.92,0,0,1-1.17.6l-3.41,1.6c-1.45.75-3.22,1.68-5.25,2.79s-4.29,2.5-6.67,4.19a99.62,99.62,0,0,0-30.54,33.27c-8.89,15.55-11.33,31.91-13.09,43.37-.81,5.79-1.21,10.51-1.43,13.77-.09,1.58-.16,2.83-.22,3.76A7.51,7.51,0,0,1,639.69,618Z" fill="#bcbec0"/><path d="M624.82,603.69s0-.13-.05-.39,0-.69-.06-1.16c0-1.07-.09-2.56-.16-4.44-.11-3.92-.27-9.48-.46-16.33s-.5-15.1-1-24.2-1.18-19.11-2.57-29.53a94.93,94.93,0,0,0-3-15,78,78,0,0,0-5.48-13.12,76.63,76.63,0,0,0-6.92-10.86,70.49,70.49,0,0,0-7.55-8.29,55.43,55.43,0,0,0-13.4-9.13c-.87-.4-1.63-.8-2.32-1.07l-1.75-.68-1.07-.44a1.33,1.33,0,0,1-.35-.17,1.64,1.64,0,0,1,.38.1l1.1.36,1.78.6c.7.26,1.47.63,2.36,1A53.82,53.82,0,0,1,598,480a68.77,68.77,0,0,1,7.69,8.3,74.9,74.9,0,0,1,7.05,10.92,77.3,77.3,0,0,1,5.58,13.24,95.54,95.54,0,0,1,3,15.11c1.38,10.46,2,20.48,2.51,29.6s.68,17.33.82,24.23.2,12.48.22,16.34v4.44c0,.47,0,.85,0,1.16A1.93,1.93,0,0,1,624.82,603.69Z" fill="#bcbec0"/><path d="M631.26,611.78a50.13,50.13,0,0,1-2-7.69,80,80,0,0,1-.82-21.58c.76-9.13,3.1-19.83,6.81-31.33s8.66-23.82,12.92-37a170.54,170.54,0,0,0,5.14-19.6,178.61,178.61,0,0,0,2.54-18.71,274.51,274.51,0,0,0,.57-32c-.31-9.11-.8-16.48-1.1-21.57-.15-2.51-.26-4.47-.35-5.87,0-.63,0-1.14-.07-1.52a1.84,1.84,0,0,1,0-.52,2.36,2.36,0,0,1,.07.51c0,.39.09.89.15,1.52.12,1.39.29,3.35.5,5.86.4,5.08,1,12.45,1.35,21.57a262.07,262.07,0,0,1-.4,32.07,172.8,172.8,0,0,1-2.5,18.8A168.91,168.91,0,0,1,649,514.37c-4.27,13.28-9.27,25.57-13,37a145.44,145.44,0,0,0-7,31.15A83.51,83.51,0,0,0,629.6,604c.44,2.51.84,4.44,1.2,5.74l.36,1.48A2.76,2.76,0,0,1,631.26,611.78Z" fill="#bcbec0"/><polygon points="675.62 619.86 591.6 619.86 589.68 603.69 675.62 603.69 675.62 619.86" fill="#bcbec0"/><path d="M229.18,298.05l2.06,5.54s7.67-1.84,13.93-12.34C245.17,291.25,236.64,298.63,229.18,298.05Z" fill="#f4a48e" style="isolation:isolate"/></svg>