<svg id="be96779d-c3f7-46b7-8f0d-51e2e53ddae2" data-name="Layer 1" xmlns="http://www.w3.org/2000/svg" width="865.76" height="682.89" viewBox="0 0 865.76 682.89"><g id="b516aae8-db39-4672-9242-01c1b07bcad9" data-name="freepik--background-complete--inject-112"><rect x="44.75" y="28.45" width="296.66" height="378.24" fill="#ebebeb"/><rect x="199.94" y="43.61" width="125.4" height="168.23" fill="#fff"/><rect x="60.83" y="43.61" width="125.4" height="168.23" fill="#fff"/><rect x="199.94" y="223.31" width="125.4" height="168.23" fill="#fff"/><rect x="60.83" y="223.31" width="125.4" height="168.23" fill="#fff"/><polygon points="64.78 294.24 111 569.59 44.77 569.59 44.77 28.45 159.21 28.45 64.78 294.24" fill="#dbdbdb"/><polygon points="121.2 106.01 102.72 168.84 65.73 294.53 65.77 294.1 82.89 425.42 91.43 491.08 99.65 556.79 90.43 491.23 81.54 425.61 63.76 294.37 63.74 294.16 63.8 293.94 101.42 168.48 120.26 105.73 139.39 43.08 121.2 106.01" fill="#ebebeb"/><polygon points="52.08 108.45 52.34 162.72 52.59 271.25 52.36 379.81 52.08 434.07 51.57 488.34 51.08 434.07 50.8 379.81 50.55 271.25 50.8 162.72 51.08 108.45 51.57 54.19 52.08 108.45" fill="#ebebeb"/><polygon points="69.37 122.04 65.61 179.73 57.73 295.06 57.73 294.96 61.56 423.47 63.27 487.75 64.78 552 62.25 487.77 59.95 423.53 55.74 295.02 55.74 294.98 55.74 294.92 64.1 179.61 68.44 121.98 72.95 64.36 69.37 122.04" fill="#ebebeb"/><path d="M80.42,481.5,73.2,419.24c-4.64-41.55-9.46-83.06-14-124.61v-.41l21.2-97L91.19,148.8l10.88-48.41L92,149,81.85,197.55l-20.7,97.08v-.26c4.74,41.5,9.14,83.07,13.72,124.6l6.61,62.35,6.37,62.36Z" fill="#ebebeb"/><rect x="44.77" y="289.71" width="25.84" height="12.62" fill="#dbdbdb"/><polygon points="321.15 294.24 274.92 569.59 341.15 569.59 341.15 28.45 226.72 28.45 321.15 294.24" fill="#dbdbdb"/><polygon points="265.67 105.73 284.49 168.48 322.13 293.94 322.19 294.16 322.15 294.37 304.39 425.61 295.47 491.23 286.26 556.79 294.48 491.08 303.04 425.42 320.15 294.1 320.18 294.53 283.2 168.84 264.73 106.01 246.54 43.08 265.67 105.73" fill="#ebebeb"/><polygon points="334.85 108.45 335.13 162.72 335.36 271.25 335.13 379.81 334.85 434.07 334.34 488.34 333.85 434.07 333.56 379.81 333.32 271.25 333.56 162.72 333.85 108.45 334.34 54.19 334.85 108.45" fill="#ebebeb"/><polygon points="317.49 121.98 321.82 179.61 330.17 294.92 330.17 294.98 330.17 295.02 325.98 423.53 323.68 487.77 321.15 552 322.64 487.75 324.35 423.47 328.17 294.96 328.17 295.06 320.32 179.73 316.55 122.04 312.97 64.36 317.49 121.98" fill="#ebebeb"/><path d="M304.47,481.28l6.59-62.35c4.6-41.53,9-83.1,13.73-124.6v.3l-20.65-97L294,149l-10-48.59,10.88,48.4,10.66,48.47,21.21,96.95v.31c-4.48,41.55-9.3,83.06-13.94,124.61l-7.22,62.26-7.47,62.24Z" fill="#ebebeb"/><rect x="315.31" y="289.69" width="25.84" height="12.62" fill="#dbdbdb"/><rect x="717.04" y="42.13" width="103.98" height="126.11" fill="#ebebeb"/><rect x="728.92" y="53.65" width="80.21" height="103.1" fill="#fff"/><rect x="805.99" y="53.65" width="3.13" height="103.1" fill="#dbdbdb"/><rect x="713.9" y="42.13" width="3.13" height="126.11" fill="#dbdbdb"/><rect x="763.35" y="67.87" width="18.9" height="56.34" fill="#dbdbdb"/><path d="M739.05,105.21h52.48v29.65H739.05Zm50.44,2h-48.4v25.58h48.4Z" fill="#ebebeb"/><rect x="700.2" y="230.14" width="103.98" height="126.11" fill="#ebebeb"/><rect x="712.09" y="241.65" width="80.21" height="103.08" fill="#fff"/><rect x="789.16" y="241.65" width="3.13" height="103.08" fill="#dbdbdb"/><rect x="697.07" y="230.14" width="3.13" height="126.11" fill="#dbdbdb"/><rect x="743.75" y="268.29" width="16.2" height="40.96" fill="#ebebeb"/><path d="M725.68,292.18h45.56v30.19H725.68Zm43.52,2H727.71v26.13H769.2Z" fill="#dbdbdb"/></g><path d="M231,505.11s-2.51-39.08,20.54-48.6c0,0,49.11-25.55,61.13-39.58,0,0,7,58.12.5,60.63l-51.61,12.52S240,494.59,231,505.11Z" fill="#002c3c"/><path d="M459,574.76s38.08,9,43.59,40.59c0,0,0,6.51,7.52,6,0,0,11.52,2.51,6-15.53,0,0-10-36.08-34.57-47.6Z" fill="#002c3c"/><path d="M231.48,573.76H252a0,0,0,0,1,0,0V614.1a10.27,10.27,0,0,1-10.27,10.27h0a10.27,10.27,0,0,1-10.27-10.27V573.76a0,0,0,0,1,0,0Z" fill="#002c3c"/><path d="M231,505.11s-7.52,9-8,43.1c0,0-3,28.56,14.53,38.58,0,0,100.21,33.57,158.34,18.54,0,0,52.11-14.53,97.7-39.09,0,0,3,.5,6-15,0,0,9.26-36.66-6.39-59.67Z" fill="#d1d3d4"/><path d="M243,520.15s-34.57-13,11.53-28.06c0,0,87.68-23.55,124.26-25.56,0,0,96.76,9.72,114.37,25a3,3,0,0,1-.49,4.75c-6.07,3.55-21.3,12.16-41.22,21.35,0,0-53.12,29.06-108.23,21.05C343.22,538.69,266.55,531.17,243,520.15Z" fill="#bcbec0"/><path d="M335.5,417.74s7.21,37.79,29.73,63.71a64.1,64.1,0,0,0,40.06,21.38c14.33,1.89,34.54,2.95,42.82-4.32l-48.26-82.74L356.18,365Z" fill="#0098d2"/><path d="M335.5,417.74s7.21,37.79,29.73,63.71a64.1,64.1,0,0,0,40.06,21.38c14.33,1.89,34.54,2.95,42.82-4.32l-48.26-82.74L356.18,365Z" opacity="0.2"/><path d="M356.77,321.48l13.09-17.14,5,18.08s-2.18,20.25-3.12,20.25-17.14,3.43-17.14,3.43Z" fill="#f7a48b"/><path d="M329.35,345.17s7.93-42.3,15.89-64.52c0,0,1.25-10.28-.31-16.83,0,0-6.86-16.51,5-26.49,0,0,4.23,32,9.91,42,0,0-.25,6.29-1.5,9.41l-1.56,58Z" fill="#f9b499"/><path d="M483.51,396.38s-17-7.51-25.55-7l-5.51-61.63s20.54,5,30.56,8C483,335.76,519.59,377.34,483.51,396.38Z" fill="#002c3c"/><path d="M483.51,396.38s-17-7.51-25.55-7l-5.51-61.63s20.54,5,30.56,8C483,335.76,519.59,377.34,483.51,396.38Z" opacity="0.2"/><path d="M434.91,285.65s19.83,4.65,23.88,40.07c0,0,10,64.89,8.38,92.47,0,0,20.42,78.55-26.63,84.23,0,0-29.61-.81-51.1-47.05l-16.63-42.58-3.25-73.42,1.22-26.76,8.11-19.88,19.85-11.6S422.39,274.92,434.91,285.65Z" fill="#0098d2"/><path d="M359.83,279.35s.54,6.08,5.81,12.57a19.84,19.84,0,0,1,1.89,12.71s-2.84,9.6,5.82,18.52c0,0,3.51,8.25-.81,12.57,0,0,12-8.78,5.94-22.84,0,0-3.24-4.87,1.63-7.44,0,0,11.76-5.68,6.89-16.76Z" fill="#002c3c"/><path d="M384.57,342.62s30.82,24.74,53.13,60l34.07,58.4s-14.6-41.77-41-75c0,0-30.42-54.76-61.25-51.92v5.27S378.08,338.16,384.57,342.62Z" opacity="0.2"/><path d="M325.87,349.1s10-10.13,19.36-5.26a18.93,18.93,0,0,1,10.54,16.76s1.72-15.65,13.79-21.23a13.39,13.39,0,0,0-8.67,2.22,8.71,8.71,0,0,1-9.18.78,12.62,12.62,0,0,1-1.21-.76S337,333.64,325.87,349.1Z" fill="#0098d2"/><path d="M278.91,500.8s-3.85,7.5.41,11.36c0,0,4.66,5.27,22.3,4.26l37.12.6s7.7,0,3.44-10.54l-.4-2.84-44.62-4.46Z" fill="#0098d2"/><path d="M278.91,500.8s-3.85,7.5.41,11.36c0,0,4.66,5.27,22.3,4.26l37.12.6s7.7,0,3.44-10.54l-.4-2.84-44.62-4.46Z" opacity="0.2"/><ellipse cx="435.02" cy="219.38" rx="5.98" ry="6.42" fill="#e6e7e8"/><ellipse cx="474.32" cy="202.29" rx="7.69" ry="8.26" fill="#e6e7e8"/><circle cx="531.85" cy="120.84" r="61.8" fill="#e6e7e8"/><path d="M518.48,159.51l.23-7.16,3.58-3.34L518,139.94l9.78-8.35L524,119.89l8.6-9.07-2.63-11.21s-9.07-13.37-23.87-8.36c0,0-17.41,6.25-11.95,30.55a53,53,0,0,0,6.23,15.33C504.16,143.56,511.06,154,518.48,159.51Z" fill="#0098d2"/><path d="M524.68,160.7l-.24-6.92,5-3.82-4.29-8.59,9.07-8.59-4.06-11.46,8.59-8.59-1.67-10.26s15-10.26,27.69,1.43c0,0,14.79,14.32-3.11,35.56C561.67,139.46,548.07,156.65,524.68,160.7Z" fill="#0098d2"/><path d="M387.55,292.36s1.65,8.36,6.55,9.15c0,0-1.34-11.21,0-18C394.1,283.47,391.07,290.2,387.55,292.36Z" fill="#f7a48b"/><ellipse cx="375.15" cy="260.4" rx="21.06" ry="35.51" transform="translate(-42.61 75.94) rotate(-10.94)" fill="#f9b499"/><path d="M434.91,285.65c1.83.64-3.06-2.85-4.48-4a22.14,22.14,0,0,0-5.31-3.18c-7.51-3.37-6.24-14.32-6.24-14.32,1.5-31.56-12.53-41.08-12.53-41.08-29.56-26.06-51.61,3.5-51.61,3.5-13,16.54,2,45.82,2,45.82a79.6,79.6,0,0,1-3.13-14.65,25.27,25.27,0,0,1,5.56-19,17.07,17.07,0,0,0,2.09-3.13,43.48,43.48,0,0,0,11.19,6.25,34.16,34.16,0,0,1,10.85,6.51,35.08,35.08,0,0,1,9,12.3s3.51,9.52,1.5,24c0,0-4.51,9.52,4,27.05,0,0,12,23.05-5,30.57,0,0,27.56,1,18.54-34.57,0,0-.5-6,3.51-6.52a20.74,20.74,0,0,0,7.51-8.52S426.39,282.64,434.91,285.65Z" fill="#002c3c"/><ellipse cx="395.33" cy="261.6" rx="5.01" ry="7.01" fill="#f9b499"/><path d="M363.76,640.9V517.14s-5-38.08,25.05-46.1c0,0,65.14-23.55,94.7-74.66,0,0,17-32.57-.5-60.62,0,0,42.59,28.56,25.56,80.67,0,0-7,33.07-56.62,61.13,0,0-36.58,21-50.11,68.64,0,0-15,49.11-15.53,96.71,0,0,3.5,12-13.53,11.52C372.78,654.43,363.76,654.43,363.76,640.9Z" fill="#002c3c"/><path d="M255.39,487.92s-3.65,5.58-.81,8.82c0,0,12.77,9.74,43.6,4.06l12.37-2v-7.3l-1.83-3.65Z" fill="#0098d2"/><path d="M294.05,477.5h0a4.45,4.45,0,0,0,.91-1.88l16.91-76.26,9.83-41.53s3.25-18.66,23.53-14c0,0,10.34,2.63,10.54,15,0,0-11.15,50.91-16.83,65.91l-29.2,55.57a12.44,12.44,0,0,1,.81,11.15s-23.32,6.49-41,2.23c0,0-20.89-2.33-12.57-7.7a18.51,18.51,0,0,1,11.15-4.06l22.95-2.82A4.51,4.51,0,0,0,294.05,477.5Z" fill="#f9b499"/><path d="M322,483.73l2.63-1.31L341.41,422l14.36-63.17s5-29.29,28.8-16.22c0,0,14.63,7.82,9.7,27.52,0,0-12.47,56.79-33.81,85.69l-19.7,31.51s7.91,17.72-3.85,18.73l-42.18,1s-23.15-1.84-13.15-9.88a16.83,16.83,0,0,1,7.26-3.31l16.89-3.41a26.71,26.71,0,0,0,6.15-2Z" fill="#f9b499"/><path d="M318.44,372s64.2-5.3,76.05-4.05c0,0-5.93,28.67-10,37.09,0,0-48.31-5.61-60.46-11.22a34.86,34.86,0,0,1-11.84,2.8Z" fill="#f7a48b"/><path d="M395.91,370.79s12.48-62.7,27.25-73.21c0,0,9.85-12.15,20.36.66,0,0,9.52,7.88-2.3,34.8l-23.64,53.18s-8.21,16.42-24.95,13.46c0,0-58.11-4.26-68-8.86,0,0-6.24,4.6-11.82,3.28l-1,5.26s-7.56-2.3-5.91-8.21c0,0-4.6-2.63-1-6.24,0,0-1.64-5.91,2.3-8.21,0,0-2-6.56,6.24-4.59,0,0,6.56,1,10.5,5.25C324,377.36,364.07,368.17,395.91,370.79Z" fill="#f9b499"/><path d="M265.32,482.14s7.2,7.1,5.78,12.37l3.76.81s-.61-6.69,2.63-4.46a6.5,6.5,0,0,1,1.42,4.46l5,0-.33-4.63s2.83-.4,4.05,4.46c0,0,18.86-1.82,22.92-3.65,0,0,.4,0,.61-3l-7.1,1.83,7.1-6.7a7.64,7.64,0,0,0-1.42-3.24L298.66,486a5.4,5.4,0,0,1-2.66.62c-1.05,0-2.05-.43-1.27-2,0,0,2.64-3.86-1.83-6.29,0,0-.34.64-1.79.83Z" fill="#0098d2"/><path d="M319.88,484.37s9.72-.36,4.74,8.15a1.46,1.46,0,0,0,.67,2.07l1.68.73s8.1.67,13.79-8l1.83,5.35a25.47,25.47,0,0,1-6.52,7.4,4.09,4.09,0,0,0-1.69,3.48l.11,2.62-11,.29s1.42-10.34-5.28-10.55c0,0-1.35-.17-1.28,1.81a3.63,3.63,0,0,1-4.39,3.87l.21,5.07-5.08.2S306.9,500.8,303,502l.24,4.88-6,.14-.62-3.72a2.53,2.53,0,0,0-1.62-1.95c-2.41-.87-7.32-3-9-6.65l19.72-4.23a23,23,0,0,0,6.15-2Z" fill="#0098d2"/><path d="M319.88,484.37s9.72-.36,4.74,8.15a1.46,1.46,0,0,0,.67,2.07l1.68.73s8.1.67,13.79-8l1.83,5.35a25.47,25.47,0,0,1-6.52,7.4,4.09,4.09,0,0,0-1.69,3.48l.11,2.62-11,.29s1.42-10.34-5.28-10.55c0,0-1.35-.17-1.28,1.81a3.63,3.63,0,0,1-4.39,3.87l.21,5.07-5.08.2S306.9,500.8,303,502l.24,4.88-6,.14-.62-3.72a2.53,2.53,0,0,0-1.62-1.95c-2.41-.87-7.32-3-9-6.65l19.72-4.23a23,23,0,0,0,6.15-2Z" opacity="0.2"/><g id="bc1271e0-d860-4f7c-897f-c3933424f159" data-name="freepik--Plant--inject-112"><path d="M605.5,363s-29.55-4.14-22.64-39.81C582.86,323.14,615.87,330.56,605.5,363Z" fill="#0098d2"/><path d="M605.5,363s-29.55-4.14-22.64-39.81C582.86,323.14,615.87,330.56,605.5,363Z" opacity="0.1" style="isolation:isolate"/><path d="M604,355.51c-.58-1.8-1.27-3.57-2-5.31l-.08-.67-.12-1.48c-.08-1.06-.14-2.12-.21-3.19-.12-2.13-.26-4.26-.29-6.4a.09.09,0,0,0-.12,0,.1.1,0,0,0-.06,0v6.4c0,1.08.1,2.14.17,3.2v.71a64.14,64.14,0,0,0-5.92-10.13q-1.51-2.14-3.24-4.14c-1.18-1.38-2.42-2.63-3.62-4-.07-.09-.19,0-.12.13a51.89,51.89,0,0,1,5.7,7.57c.89,1.38,1.75,2.76,2.55,4.14l-.28-.11c-.34-.14-.69-.29-1.05-.41l-2.41-.93c-1.59-.58-3.17-1.16-4.75-1.76-.09,0-.16.13-.06.16,1.57.64,3.11,1.3,4.67,2l2.29,1,1.16.47a3.25,3.25,0,0,0,.77.28q.91,1.61,1.74,3.24a77.47,77.47,0,0,1,3.6,8.51c.08.21.15.42.22.61a16.42,16.42,0,0,0-2.43-1.16l-3-1.38c-2.07-1-4.14-1.92-6.13-3-.1-.07-.18.09-.08.15,2,1.1,4,2.29,6,3.39,1,.55,2.05,1.09,3.08,1.59a9.89,9.89,0,0,0,2.76,1.12,35,35,0,0,1,1.94,8.38c.34,4,.29,8.1.39,12.14,0,.07.1,0,.1,0,.3-3.67.47-7.38.48-11A32.06,32.06,0,0,0,604,355.51Z" fill="#002c3c"/><path d="M599.46,334.53a33.92,33.92,0,0,0-.29,6.29m.08,0c.12-2.1.14-4.14.39-6.25,0-.11-.17-.16-.18,0Z" fill="#002c3c"/><path d="M591,336.31a23,23,0,0,1-3.79-1.86c-.1,0-.18.09-.09.15a14.12,14.12,0,0,0,3.84,1.83S591.08,336.34,591,336.31Z" fill="#002c3c"/><path d="M606.44,419.58c0-3.27-.09-6.53-.13-9.8,0-10.84-.15-21.68-.34-32.52q-.24-12.92-.6-25.83c-.35-12.91,0-.08-.08-.11v-7.05s0-.1-.15-.08-.14,0-.14.08v7.06a.14.14,0,0,0-.07.11c-.42,15.32-.82,30.64-.91,46v9.34q-.16,15-.12,30v4.77c0,9.15.1,18.28.1,27.43,0,.48.55.73,1.13.75s1.38-.23,1.38-.8c0-10.08.06-20.16.06-30.24C606.46,432.29,606.49,425.94,606.44,419.58Z" fill="#002c3c"/><path d="M594.1,409.66s-14.21-10.53-27.7-3.42-15.6,34.49-15.6,34.49,19.8,2.84,32.28-9C595.1,420.35,594.1,409.66,594.1,409.66Z" fill="#0098d2"/><path d="M594.1,409.66s-14.21-10.53-27.7-3.42-15.6,34.49-15.6,34.49,19.8,2.84,32.28-9C595.1,420.35,594.1,409.66,594.1,409.66Z" opacity="0.1" style="isolation:isolate"/><path d="M598,410.31a17.08,17.08,0,0,0-8.28-1.08,12.5,12.5,0,0,0-1.74-.16l-2-.15c-1.38-.11-2.76-.2-4.14-.29-2.76-.21-5.61-.39-8.41-.67a.09.09,0,0,0,0,.18c2.76.35,5.51.75,8.27,1,1.38.16,2.86.29,4.29.4a3.74,3.74,0,0,1,1,.1c-.43.1-.86.19-1.27.32a32.59,32.59,0,0,0-6.43,2.61c-1.13.2-2.23.52-3.34.77q-2.62.61-5.25,1.38c-3.45.89-6.9,1.92-10.29,2.91-.12,0,0,.21,0,.18,3.42-.84,6.89-1.62,10.29-2.43,1.67-.4,3.34-.79,5-1.2l1.31-.3a41.56,41.56,0,0,0-10.1,8.78,54.89,54.89,0,0,0-7,11c0,.11.08.21.15.11a53.39,53.39,0,0,1,8.5-11.16c-.07.19-.12.39-.19.57l-.79,2.51c-.52,1.68-1.06,3.35-1.56,5,0,.11.14.15.18,0,.59-1.63,1.16-3.25,1.74-4.88.28-.8.55-1.6.84-2.4.14-.42.29-.83.43-1.26l.14-.37a49,49,0,0,1,5-4.3,38.71,38.71,0,0,1,7.55-4.32,4.48,4.48,0,0,1-.14.73c-.15.63-.29,1.28-.43,1.93-.27,1.38-.54,2.76-.8,4.06-.54,2.76-.87,5.51-1.38,8.27a.1.1,0,0,0,.13.06.1.1,0,0,0,.05-.06c.64-2.76,1.45-5.51,2.07-8.27.31-1.38.62-2.76.91-4.14.14-.65.26-1.3.4-1.95.07-.37.15-.73.2-1.09l.77-.31a22.38,22.38,0,0,1,11.82-1.63,11.6,11.6,0,0,1,8.55,6.89c.14.31.62.12.56-.19A11,11,0,0,0,598,410.31Z" fill="#002c3c"/><path d="M576.21,422c-.4,1.81-.8,3.6-1.19,5.41a39,39,0,0,0-1,5.26c0,.06.08.06.11,0a40.2,40.2,0,0,0,1.2-5.3q.54-2.67,1-5.34C576.42,422,576.24,421.91,576.21,422Z" fill="#002c3c"/><path d="M562.47,426.6c-1.81.91-3.56,2-5.45,2.76a.08.08,0,1,0,.07.15,55.19,55.19,0,0,0,5.42-2.76S562.51,426.57,562.47,426.6Z" fill="#002c3c"/><path d="M597.29,390.32s-17.37,1.12-25.44-10.35-6.28-27.81-6.28-27.81,18.26,2.22,25.5,10.44S597.29,390.32,597.29,390.32Z" fill="#0098d2"/><path d="M605.44,407.47c-.59-1.87-1.38-3.7-2-5.52s-1.38-3.48-2.16-5.2a111.78,111.78,0,0,0-5.2-10.24c-1.23-2.11-2.54-4.14-3.9-6.18a7.54,7.54,0,0,0-.13-.92l-.25-1.62c-.17-1.09-.36-2.19-.54-3.28-.4-2.4-.9-4.79-1.28-7.19,0-.11-.2-.11-.18,0,.34,2.38.59,4.76.92,7.13.17,1.16.32,2.34.49,3.5l.2,1.26a125,125,0,0,0-8.59-11.14c-.42-.49-.84-.95-1.27-1.38,0-.14-.11-.26-.17-.4l-.37-1c-.26-.69-.51-1.37-.76-2.06-.48-1.38-.92-2.76-1.28-4.14a.1.1,0,0,0-.13-.06.1.1,0,0,0,0,.06c.34,1.38.72,2.85,1.14,4.26.2.68.42,1.38.67,2l.12.33c-2.22-2.41-4.54-4.74-6.9-7a.08.08,0,0,0-.12.12A124.35,124.35,0,0,1,586,373.85a9.21,9.21,0,0,0-1.28-.32c-1.38-.26-2.67-.45-4-.62-2.84-.36-5.65-.72-8.47-1.17-.12,0-.16.15,0,.18,2.76.53,5.37,1.13,8.05,1.75,1.25.29,2.52.54,3.79.78a27.15,27.15,0,0,1,3.05.87l.84,1.2q1.94,2.76,3.7,5.66l-1.77-.34c-1.38-.27-2.69-.5-4-.72-2.65-.44-5.3-.9-7.92-1.51-.11,0-.15.16,0,.18,2.66.62,5.28,1.38,7.93,2.06,1.27.33,2.55.65,3.84.92l1.93.43a4,4,0,0,0,.77.13q3.81,6.18,7.13,12.62c1,1.89,1.91,3.81,2.76,5.72s1.73,4,2.58,6C605,408.06,605.6,407.94,605.44,407.47Z" fill="#002c3c"/><path d="M587.68,367.54c-.34-1.65-.69-3.31-1-5,0-.11-.21,0-.18,0,.33,1.62.65,3.25.94,4.89a44.51,44.51,0,0,0,1,4.86h0A35.22,35.22,0,0,0,587.68,367.54Z" fill="#002c3c"/><path d="M577.54,367.06c-.8-.4-1.66-.73-2.5-1.06l-1.31-.51-.68-.26a4,4,0,0,1-.73-.34c-.14-.09-.22.14-.08.16a4,4,0,0,1,.74.3l.65.3,1.27.57a22.84,22.84,0,0,0,2.57,1,.1.1,0,0,0,.09-.1A.14.14,0,0,0,577.54,367.06Z" fill="#002c3c"/><path d="M615.07,376.66S625.58,357,641.59,354s25.78,13.43,25.78,13.43S655.7,382.29,641,384.9,615.07,376.66,615.07,376.66Z" fill="#0098d2"/><path d="M652.31,362.78a43.69,43.69,0,0,0-12.56.16l.72-.39c1.19-.59,2.37-1.21,3.55-1.82a82.73,82.73,0,0,1,7.51-3.67.09.09,0,0,0,.05-.13.09.09,0,0,0-.12-.05h0c-2.5,1.18-5.09,2.14-7.6,3.3-1.26.58-2.49,1.17-3.71,1.82a23.28,23.28,0,0,0-2.45,1.38,44.49,44.49,0,0,0-10.15,3.37l2-2.17c1.5-1.64,3-3.35,4.6-4.84.09-.07,0-.19-.13-.13-1.67,1.52-3.44,2.93-5.07,4.52-.78.77-1.54,1.55-2.27,2.37-.36.41-.73.84-1.08,1.27a42.2,42.2,0,0,0-21.45,29,.09.09,0,0,0,.12.05.1.1,0,0,0,.06-.05,48.22,48.22,0,0,1,11.75-19.89,46.3,46.3,0,0,1,21.43-12.42,46.9,46.9,0,0,1,14.79-1.38.17.17,0,0,0,.08-.22Z" fill="#002c3c"/><path d="M667.37,367.41S655.7,382.3,641,384.9c-11.2,2-20.4-3.85-24.14-6.73l-.81-1.38s7.57-6.39,21.89-10.06S667.37,367.41,667.37,367.41Z" opacity="0.1" style="isolation:isolate"/><path d="M643,355.79a38.15,38.15,0,0,0-3.55,2.34,23.17,23.17,0,0,0-3.09,2.76c-.08.1,0,.21.14.14,1.06-.92,2.14-1.85,3.23-2.76a32.38,32.38,0,0,1,3.37-2.43.08.08,0,0,0,.08-.1.1.1,0,0,0-.1-.09.09.09,0,0,0-.09.11A0,0,0,0,0,643,355.79Z" fill="#002c3c"/><path d="M651.8,359.11c-.6.24-1.2.46-1.8.71l-1.78.73c-.12,0-.07.26,0,.21L650,360l1.76-.76C652,359.24,651.89,359.06,651.8,359.11Z" fill="#002c3c"/><path d="M613,401.37s2.76,19.49,17.46,26.29,32.5,0,32.5,0S655.92,385.52,613,401.37Z" fill="#0098d2"/><path d="M613,401.37s2.76,19.49,17.46,26.29,32.5,0,32.5,0S655.92,385.52,613,401.37Z" opacity="0.1" style="isolation:isolate"/><path d="M652.82,415c-1.38-.15-2.69-.39-4-.64-.66-.11-1.38-.23-2-.37l-1-.19-1.19-1.1a59.07,59.07,0,0,0-9-6.5,49.31,49.31,0,0,0-5.36-2.76h.27l4.83.21c3.21.15,6.43.22,9.66.42.11,0,.11-.16,0-.18-3.22-.22-6.43-.56-9.66-.84l-4.69-.42-2.41-.21h-.63c-.82-.31-1.66-.61-2.52-.87a22.73,22.73,0,0,0-12.42-.68c-3.68.94-7.36,3.36-8.27,7.25,0,.12.18.22.23.08,1.38-3.24,5-4.87,8.28-5.52a20,20,0,0,1,6.63-.14,16.36,16.36,0,0,0,.75,2.95c.4,1.38.8,2.76,1.21,4.14.83,2.76,1.75,5.44,2.56,8.18a.09.09,0,0,0,.12.06s0,0,0-.06c-.67-2.76-1.25-5.51-1.91-8.27-.32-1.38-.67-2.76-1-4a20,20,0,0,0-.73-2.76,31.29,31.29,0,0,1,3.8.9,54.2,54.2,0,0,1,6.63,2.42c.22,1.38.53,2.76.86,4.14.4,1.71.84,3.42,1.38,5.11a.08.08,0,1,0,.16,0V415h0c-.32-1.6-.67-3.19-1-4.77-.28-1.29-.53-2.58-.81-3.85a46.53,46.53,0,0,1,5.34,2.76,11.72,11.72,0,0,0,.2,1.16c.09.66.22,1.37.34,2,.28,1.5.58,3,.94,4.48a69.7,69.7,0,0,0,2.51,8.47v.11l.08.1a.09.09,0,0,0,.16-.09c-.68-2.88-1.45-5.75-2.09-8.65-.32-1.38-.63-2.89-.92-4.34-.15-.73-.28-1.45-.42-2.18a3.84,3.84,0,0,0-.11-.65,60.75,60.75,0,0,1,14.45,11.77c.09.12.3,0,.2-.17a50.63,50.63,0,0,0-3.49-4.26c-.73-.79-1.5-1.56-2.27-2.3h.23c.69.12,1.38.22,2.07.31,1.38.18,2.76.31,4.07.47C652.91,415.19,653,415,652.82,415Z" fill="#002c3c"/><path d="M642.55,421.61h0l-.08-.51c0-.22-.15-.42-.18-.64h0c-.3-1.29-.55-2.6-.79-3.92a.08.08,0,0,0-.08-.08.09.09,0,0,0-.08.08,16,16,0,0,0,1.12,5.1h.09Z" fill="#002c3c"/><path d="M630.29,421.29a.08.08,0,0,0-.08-.08c-.42-1.73-.8-3.45-1.16-5.19-.2-.91-.39-1.82-.55-2.76-.1-.48-.2-1-.28-1.47a4,4,0,0,0-.32-1.27.1.1,0,0,0-.13,0l0,0a8.65,8.65,0,0,0,.37,2.62c.18.95.36,1.89.57,2.84.42,1.92.91,3.83,1.44,5.72a.12.12,0,0,0,.15.07.11.11,0,0,0,.06-.07Z" fill="#002c3c"/><path d="M651.52,409.38c-2.68-.35-5.35-.74-8-1.07-.12,0-.16.16,0,.18,2.68.38,5.35.72,8,1.07C651.59,409.58,651.63,409.4,651.52,409.38Z" fill="#002c3c"/><path d="M605.47,355.69s-9-39.33,33.29-55.18C638.76,300.46,650.47,352.22,605.47,355.69Z" fill="#0098d2"/><path d="M614.59,333.44l.46-.27c.8-.45,1.6-.89,2.38-1.38l4.91-2.76c3.22-1.81,6.4-3.69,9.66-5.45.11,0,0-.21-.08-.15-3.26,1.76-6.57,3.42-9.84,5.15l-4.84,2.56-2,1.05c1.38-2.68,2.93-5.3,4.57-7.83a117.51,117.51,0,0,1,7.16-9.65.16.16,0,0,0-.07-.21.16.16,0,0,0-.15,0,66.55,66.55,0,0,0-9.77,12v-.42c0-1,.07-1.95.1-2.93,0-1.92-.07-3.84,0-5.76a.1.1,0,0,0-.13-.05l-.05.05c-.09,1.89-.31,3.78-.42,5.66,0,.95-.09,1.89-.12,2.76v1.65c-.87,1.38-1.71,2.76-2.5,4.14a77.61,77.61,0,0,0-3.78,7.92c0-1-.09-2-.15-2.92-.12-2.17-.39-4.31-.48-6.46a.1.1,0,0,0-.13-.05.12.12,0,0,0-.05.05v6.47a24.94,24.94,0,0,0,.14,3.23,7.14,7.14,0,0,0,.07,1.2,70.05,70.05,0,0,0-3.19,10.8,112.91,112.91,0,0,0-1.57,11.88h0a64,64,0,0,1,2.23-10.6c.53-1.85,1.08-3.69,1.67-5.51,1.77-.83,3.45-1.87,5.15-2.76l5.29-2.9c3.54-1.95,7-3.91,10.68-5.62.11,0,0-.2-.08-.15-3.68,1.67-7.41,3.26-11,5.08-1.79.9-3.57,1.86-5.32,2.85-1.47.83-3,1.66-4.38,2.61.42-1.23.85-2.44,1.31-3.65A105.21,105.21,0,0,1,614.59,333.44Z" fill="#002c3c"/><path d="M611,324.4a.09.09,0,0,0,0-.12.1.1,0,0,0-.13.05.08.08,0,0,0,0,.07c.15,2.24.24,4.49.47,6.72,0,.13.21.13.19,0C611.43,328.87,611.2,326.64,611,324.4Z" fill="#002c3c"/><path d="M631.3,331.91c-2.65,1.06-5.33,2.07-7.95,3.17-.08,0,0,.15,0,.13,2.68-1,5.31-2.09,8-3.13C631.45,332.06,631.39,331.87,631.3,331.91Z" fill="#002c3c"/><path d="M635.31,313.77a68.7,68.7,0,0,0-7.52,4,.11.11,0,0,0,0,.16.12.12,0,0,0,.16,0h0c2.44-1.38,4.94-2.76,7.47-4.14C635.5,313.88,635.41,313.73,635.31,313.77Z" fill="#002c3c"/><rect x="573.74" y="440.73" width="60.93" height="64.23" fill="#808285"/><rect x="569.55" y="463.45" width="3.12" height="110" fill="#002c3c"/><rect x="635.42" y="463.45" width="3.12" height="110" fill="#002c3c"/><rect x="604.13" y="463.45" width="3.12" height="110" fill="#002c3c"/><rect x="571.11" y="500.83" width="65.87" height="8.9" fill="#002c3c"/></g></svg>